<?xml version="1.0" encoding="utf-8"?>
<!DOCTYPE svg PUBLIC "-//W3C//DTD SVG 1.1//EN" "http://www.w3.org/Graphics/SVG/1.1/DTD/svg11.dtd">
<svg version="1.1" id="Ebene_1" xmlns="http://www.w3.org/2000/svg" xmlns:xlink="http://www.w3.org/1999/xlink" x="0px" y="0px"
	 width="85px" height="85px" viewBox="0 0 85 85" enable-background="new 0 0 85 85" xml:space="preserve">
<g>
	<path fill="#668DBC" d="M81.251,28.764C76.689,9.727,61.078,0,42.5,0c-7.719-0.001-14.896,3.157-21.135,6.753
		c-4.995,2.879-9.41,5.646-12.857,10.231C3.166,24.09,0,32.925,0,42.5c0,3.177,1.667,7.28,2.329,10.257
		c1.583,7.134,3.641,12.585,8.312,17.873C18.429,79.443,29.815,85,42.5,85c5.327,0,9.662-1.898,14.359-3.688
		c4.002-1.523,8.478-2.718,11.793-5.311c1.558-1.216,2.395-2.741,3.766-4.159c2.773-2.868,5.68-5.166,7.674-8.687
		c1.229-2.17,1.838-5.381,2.676-7.754C84.195,51.35,85,47.023,85,42.5C85,37.606,82.33,33.268,81.251,28.764z"/>
</g>
<circle fill="none" stroke="#FFFFFF" stroke-width="1.5" stroke-miterlimit="10" cx="42.5" cy="42.5" r="34"/>
</svg>
