<?xml version="1.0" encoding="utf-8"?>
<!-- Generator: Adobe Illustrator 16.0.4, SVG Export Plug-In . SVG Version: 6.00 Build 0)  -->
<!DOCTYPE svg PUBLIC "-//W3C//DTD SVG 1.1//EN" "http://www.w3.org/Graphics/SVG/1.1/DTD/svg11.dtd">
<svg version="1.1" xmlns="http://www.w3.org/2000/svg" xmlns:xlink="http://www.w3.org/1999/xlink" x="0px" y="0px" width="70px"
	 height="210px" viewBox="0 0 70 210" enable-background="new 0 0 70 210" xml:space="preserve">
<g id="Ebene_1">
</g>
<g id="Layer_2">
	<g>
		<path fill="#C59E5A" d="M17.631,31.006"/>
	</g>
	<g>
		<path fill="#C59E5A" d="M52.302,30.768"/>
	</g>
	<path fill="none" stroke="#FFFFFF" stroke-width="3" stroke-linecap="round" stroke-miterlimit="10" d="M5,32.499L34.4,11.674
		c0.33-0.234,0.87-0.234,1.2,0L65,32.499"/>
	<g>
		<path fill="#C59E5A" d="M17.631,101.005"/>
	</g>
	<g>
		<path fill="#C59E5A" d="M52.302,100.767"/>
	</g>
	<path fill="none" stroke="#FFFFFF" stroke-width="3" stroke-linecap="round" stroke-miterlimit="10" d="M5,102.498L34.4,81.673
		c0.33-0.234,0.87-0.234,1.2,0L65,102.498"/>
	<path fill="none" stroke="#FFFFFF" stroke-width="3" stroke-linecap="round" stroke-miterlimit="10" d="M55.001,87L35.6,73.177
		c-0.33-0.234-0.87-0.234-1.2,0L15.001,87"/>
	<g>
		<path fill="#C59E5A" d="M17.631,171.003"/>
	</g>
	<g>
		<path fill="#C59E5A" d="M52.302,170.765"/>
	</g>
	<path fill="none" stroke="#FFFFFF" stroke-width="3" stroke-linecap="round" stroke-miterlimit="10" d="M5,172.496L34.4,151.671
		c0.33-0.234,0.87-0.234,1.2,0L65,172.496"/>
	<path fill="none" stroke="#D9682C" stroke-width="3" stroke-linecap="round" stroke-miterlimit="10" d="M55.001,156.998
		L35.6,143.175c-0.33-0.234-0.87-0.234-1.2,0l-19.398,13.822"/>
	<g>
		<path fill="#FFFFFF" d="M31.52,183.199c-0.192,0.808-0.314,1.643-0.268,2.398c0.138,2.277,1.997,2.983,3.524,0.284
			c0.025-0.048,0.048-0.093,0.073-0.14c-0.243,0.014-0.49,0.009-0.738-0.028C32.869,185.521,31.973,184.505,31.52,183.199z"/>
		<path fill="#FFFFFF" d="M33.135,179.539c-1.297,1.723-0.179,4.842,1.237,5.144c0.29,0.062,0.623,0.073,0.972,0.049
			c1.174-2.745,0.854-5.06,0.43-5.795C35.339,178.182,34.238,178.072,33.135,179.539z"/>
		<path fill="#FFFFFF" d="M40.883,187.609c1.703-0.641,3.351-5.329,3.44-7.773c0.1-2.667-0.953-2.981-2.096-1.687
			c-0.466,1.725-1.194,4.471-1.669,6.477c-0.053,0.226-0.266,1.197-0.608,2.543C40.137,187.534,40.427,187.781,40.883,187.609z"/>
		<path fill="#FFFFFF" d="M32.115,198.396c1.15,0.708,2.7-2.722,3.93-6.198C33.296,193.816,30.792,197.583,32.115,198.396z"/>
		<path fill="#FFFFFF" d="M69.755,183.572l-34.16-24.4c-0.327-0.234-0.863-0.234-1.19,0l-34.159,24.4
			c-0.327,0.232-0.327,0.615,0,0.85l34.159,24.396c0.327,0.236,0.863,0.236,1.19,0l34.16-24.396
			C70.083,184.187,70.083,183.804,69.755,183.572z M48.223,193.254c-2.753-0.455-6.367-2.102-9.465-1.886
			c-0.626,1.966-1.387,3.998-2.238,5.553c-3.608,6.581-10.628-0.259-2.433-5.319c0.886-0.547,1.662-0.864,2.528-1.087
			c0.851-2.603,1.441-4.838,1.441-4.838c0.098-0.494,0.209-1.005,0.327-1.523c-0.377,0.312-1.016,0.785-1.793,1.136
			c-0.432,0.9-0.966,1.714-1.561,2.4c-1.686,1.949-4.063,2.194-5.237-0.304c-0.16-0.341-0.269-0.714-0.34-1.106
			c-1.158,2.773-3.911,3.181-4.693,2.704c-1.471-0.896-1.208-2.703-0.448-6.55c0.336-1.71,1.062-4.163,1.762-6.36h-2.069
			l0.457-0.939c0,0,0.829,0.02,1.904,0.037c0.76-2.336,1.42-4.186,1.42-4.186l2.292-0.335c0,0-0.641,2.048-1.396,4.546
			c1.118,0.003,2.102-0.01,2.407-0.062l-0.286,0.939h-2.386c-0.785,2.619-1.625,5.51-1.972,7.009
			c-0.747,3.229-0.812,5.266,0.218,5.266c0.785,0,2.212-1.623,2.728-2.536c-0.263-2.589,0.967-5.79,1.439-6.482
			c0,0,0.282,0.01,0.641,0.021c0.1-0.316,0.222-0.626,0.378-0.918c1.482-2.763,5.002-3.032,5.659,0.37
			c0.376,1.945,0.114,3.874-0.522,5.567c0.645-0.235,1.22-0.562,1.569-0.932c0.795-3.294,1.828-6.583,1.828-6.583l2.29-0.335
			c0,0-0.057,0.207-0.153,0.559c0.507-0.419,1.631-1.158,2.673-0.528c1.748,1.058,2.508,4.641,0.334,8.86
			c-2.173,4.217-3.938,3.914-4.767,3.677c-0.497-0.144-0.848-0.451-1.093-0.829c-0.163,0.609-0.348,1.267-0.549,1.945
			c1.557,0.082,3.859,0.632,7.184,1.824c5.003,1.793,5.733-0.688,5.733-0.688s0.111,0.022,0.177,0.022
			C52.278,191.364,51.433,193.786,48.223,193.254z"/>
	</g>
	<g>
		<path fill="#FFFFFF" d="M31.52,113.203c-0.192,0.808-0.313,1.643-0.268,2.398c0.138,2.277,1.997,2.983,3.524,0.284
			c0.025-0.048,0.048-0.093,0.073-0.14c-0.243,0.014-0.49,0.009-0.738-0.028C32.869,115.525,31.972,114.509,31.52,113.203z"/>
		<path fill="#FFFFFF" d="M33.135,109.542c-1.297,1.723-0.179,4.842,1.237,5.144c0.29,0.062,0.623,0.073,0.972,0.049
			c1.174-2.745,0.854-5.06,0.43-5.795C35.339,108.186,34.238,108.076,33.135,109.542z"/>
		<path fill="#FFFFFF" d="M40.883,117.613c1.703-0.641,3.351-5.329,3.44-7.773c0.1-2.667-0.953-2.981-2.096-1.687
			c-0.466,1.725-1.194,4.471-1.669,6.477c-0.053,0.226-0.266,1.197-0.608,2.543C40.137,117.538,40.427,117.785,40.883,117.613z"/>
		<path fill="#FFFFFF" d="M32.115,128.4c1.15,0.708,2.7-2.722,3.93-6.198C33.296,123.82,30.792,127.587,32.115,128.4z"/>
		<path fill="#FFFFFF" d="M69.755,113.576l-34.16-24.4c-0.327-0.234-0.863-0.234-1.19,0l-34.159,24.4
			c-0.327,0.232-0.327,0.615,0,0.85l34.159,24.396c0.327,0.236,0.863,0.236,1.19,0l34.16-24.396
			C70.083,114.191,70.083,113.808,69.755,113.576z M48.223,123.258c-2.753-0.455-6.367-2.102-9.465-1.886
			c-0.626,1.966-1.387,3.998-2.238,5.553c-3.608,6.581-10.628-0.259-2.433-5.319c0.886-0.547,1.662-0.864,2.528-1.087
			c0.851-2.603,1.441-4.838,1.441-4.838c0.098-0.494,0.209-1.005,0.327-1.523c-0.377,0.312-1.016,0.785-1.793,1.136
			c-0.432,0.9-0.966,1.714-1.561,2.4c-1.686,1.949-4.062,2.194-5.237-0.304c-0.159-0.341-0.269-0.714-0.341-1.106
			c-1.157,2.773-3.91,3.181-4.692,2.704c-1.472-0.896-1.208-2.703-0.448-6.55c0.336-1.71,1.062-4.163,1.762-6.36h-2.069l0.456-0.939
			c0,0,0.829,0.02,1.904,0.037c0.76-2.336,1.42-4.186,1.42-4.186l2.292-0.335c0,0-0.642,2.048-1.396,4.546
			c1.117,0.003,2.102-0.01,2.406-0.062l-0.285,0.939h-2.387c-0.785,2.619-1.625,5.51-1.973,7.009
			c-0.746,3.229-0.811,5.266,0.219,5.266c0.785,0,2.213-1.623,2.728-2.536c-0.263-2.589,0.967-5.79,1.438-6.482
			c0,0,0.283,0.01,0.642,0.021c0.1-0.316,0.222-0.626,0.378-0.918c1.482-2.763,5.002-3.032,5.659,0.37
			c0.376,1.945,0.114,3.874-0.522,5.567c0.645-0.235,1.22-0.562,1.569-0.932c0.795-3.294,1.828-6.583,1.828-6.583l2.29-0.335
			c0,0-0.057,0.207-0.153,0.559c0.507-0.419,1.631-1.158,2.673-0.528c1.748,1.058,2.508,4.641,0.334,8.86
			c-2.173,4.217-3.938,3.914-4.767,3.677c-0.497-0.144-0.848-0.451-1.093-0.829c-0.163,0.609-0.348,1.267-0.549,1.945
			c1.557,0.082,3.859,0.632,7.184,1.824c5.003,1.793,5.733-0.688,5.733-0.688s0.111,0.022,0.177,0.022
			C52.278,121.368,51.433,123.79,48.223,123.258z"/>
	</g>
	<g>
		<path fill="#FFFFFF" d="M31.52,43.203c-0.192,0.808-0.313,1.643-0.268,2.398c0.138,2.277,1.997,2.983,3.524,0.284
			c0.025-0.048,0.048-0.093,0.073-0.14c-0.243,0.014-0.49,0.009-0.738-0.028C32.869,45.525,31.972,44.509,31.52,43.203z"/>
		<path fill="#FFFFFF" d="M33.135,39.542c-1.297,1.723-0.179,4.842,1.237,5.144c0.29,0.062,0.623,0.073,0.972,0.049
			c1.174-2.745,0.854-5.06,0.43-5.795C35.339,38.186,34.238,38.076,33.135,39.542z"/>
		<path fill="#FFFFFF" d="M40.883,47.613c1.703-0.641,3.351-5.329,3.44-7.773c0.1-2.667-0.953-2.981-2.096-1.687
			c-0.466,1.725-1.194,4.471-1.669,6.477c-0.053,0.226-0.266,1.197-0.608,2.543C40.137,47.538,40.427,47.785,40.883,47.613z"/>
		<path fill="#FFFFFF" d="M32.115,58.4c1.15,0.708,2.7-2.722,3.93-6.198C33.296,53.82,30.792,57.587,32.115,58.4z"/>
		<path fill="#FFFFFF" d="M69.755,43.576l-34.16-24.4c-0.327-0.234-0.863-0.234-1.19,0l-34.159,24.4
			c-0.327,0.232-0.327,0.615,0,0.85l34.159,24.396c0.327,0.236,0.863,0.236,1.19,0l34.16-24.396
			C70.083,44.191,70.083,43.808,69.755,43.576z M48.223,53.258c-2.753-0.455-6.367-2.102-9.465-1.886
			c-0.626,1.966-1.387,3.998-2.238,5.553c-3.608,6.581-10.628-0.259-2.433-5.319c0.886-0.547,1.662-0.864,2.528-1.087
			c0.851-2.603,1.441-4.838,1.441-4.838c0.098-0.494,0.209-1.005,0.327-1.523c-0.377,0.312-1.016,0.785-1.793,1.136
			c-0.432,0.9-0.966,1.714-1.561,2.4c-1.686,1.949-4.062,2.194-5.237-0.304c-0.159-0.341-0.269-0.714-0.341-1.106
			c-1.157,2.773-3.91,3.181-4.692,2.704c-1.472-0.896-1.208-2.703-0.448-6.55c0.336-1.71,1.062-4.163,1.762-6.36h-2.069l0.456-0.939
			c0,0,0.829,0.02,1.904,0.037c0.76-2.336,1.42-4.186,1.42-4.186l2.292-0.335c0,0-0.642,2.048-1.396,4.546
			c1.117,0.003,2.102-0.01,2.406-0.062l-0.285,0.939h-2.387c-0.785,2.619-1.625,5.51-1.973,7.009
			c-0.746,3.229-0.811,5.266,0.219,5.266c0.785,0,2.213-1.623,2.728-2.536c-0.263-2.589,0.967-5.79,1.438-6.482
			c0,0,0.283,0.01,0.642,0.021c0.1-0.316,0.222-0.626,0.378-0.918c1.482-2.763,5.002-3.032,5.659,0.37
			c0.376,1.945,0.114,3.874-0.522,5.567c0.645-0.235,1.22-0.562,1.569-0.932c0.795-3.294,1.828-6.583,1.828-6.583l2.29-0.335
			c0,0-0.057,0.207-0.153,0.559c0.507-0.419,1.631-1.158,2.673-0.528c1.748,1.058,2.508,4.641,0.334,8.86
			c-2.173,4.217-3.938,3.914-4.767,3.677c-0.497-0.144-0.848-0.451-1.093-0.829c-0.163,0.609-0.348,1.267-0.549,1.945
			c1.557,0.082,3.859,0.632,7.184,1.824c5.003,1.793,5.733-0.688,5.733-0.688s0.111,0.022,0.177,0.022
			C52.278,51.368,51.433,53.79,48.223,53.258z"/>
	</g>
</g>
</svg>
