<?xml version="1.0" encoding="utf-8"?>
<!-- Generator: Adobe Illustrator 16.0.4, SVG Export Plug-In . SVG Version: 6.00 Build 0)  -->
<!DOCTYPE svg PUBLIC "-//W3C//DTD SVG 1.1//EN" "http://www.w3.org/Graphics/SVG/1.1/DTD/svg11.dtd">
<svg version="1.1" id="Ebene_1" xmlns="http://www.w3.org/2000/svg" xmlns:xlink="http://www.w3.org/1999/xlink" x="0px" y="0px"
	 width="560px" height="320px" viewBox="0 0 560 320" enable-background="new 0 0 560 320" xml:space="preserve">
<g>
	<g id="widget_layouts">
		<g id="equal_bg" opacity="0.1">
			<rect x="290" y="178" fill="#777777" width="260" height="27"/>
		</g>
		<g id="widget_2_" opacity="0.15">
			<rect x="344" y="183" width="64" height="17"/>
		</g>
		<g id="widget_1_" opacity="0.15">
			<rect x="413" y="183" width="63" height="17"/>
		</g>
		<g id="widget" opacity="0.15">
			<rect x="481" y="183" width="64" height="17"/>
		</g>
		<g id="double_bg" opacity="0.1">
			<rect x="290" y="264" fill="#777777" width="260" height="27"/>
		</g>
		<g id="widget_4_" opacity="0.15">
			<rect x="344" y="269" width="132" height="17"/>
		</g>
		<g id="widget_3_" opacity="0.15">
			<rect x="481" y="269" width="64" height="17"/>
		</g>
		<g id="stack_bg" opacity="0.1">
			<rect x="290" y="210" fill="#777777" width="260" height="49"/>
		</g>
		<g id="widget_5_" opacity="0.15">
			<rect x="344" y="215" width="201" height="17"/>
		</g>
		<g id="widget_6_" opacity="0.15">
			<rect x="344" y="237" width="201" height="17"/>
		</g>
		<g>
			<path fill="#444444" d="M299.375,167.876h-1.066l-1.871-6.214c-0.09-0.275-0.188-0.622-0.299-1.041
				c-0.109-0.419-0.168-0.671-0.172-0.755c-0.093,0.559-0.24,1.17-0.443,1.834l-1.813,6.176h-1.063l-2.472-9.278h1.146l1.468,5.73
				c0.202,0.804,0.353,1.531,0.442,2.184c0.111-0.771,0.28-1.531,0.508-2.271l1.664-5.646h1.144l1.745,5.693
				c0.201,0.653,0.375,1.396,0.516,2.222c0.079-0.601,0.231-1.33,0.456-2.193l1.46-5.719h1.146L299.375,167.876z"/>
			<path fill="#444444" d="M303.062,159.034c0-0.241,0.061-0.418,0.179-0.53c0.118-0.111,0.267-0.168,0.442-0.168
				c0.168,0,0.312,0.059,0.438,0.171c0.123,0.114,0.187,0.29,0.187,0.527c0,0.235-0.062,0.414-0.187,0.528
				c-0.122,0.117-0.271,0.177-0.438,0.177c-0.181,0-0.324-0.06-0.442-0.177S303.062,159.271,303.062,159.034z M304.206,167.876
				h-1.054v-6.957h1.054V167.876z"/>
			<path fill="#444444" d="M311.176,166.941h-0.058c-0.486,0.707-1.214,1.062-2.187,1.062c-0.906,0-1.615-0.312-2.123-0.935
				c-0.506-0.62-0.76-1.506-0.76-2.651s0.256-2.038,0.766-2.672c0.509-0.636,1.215-0.952,2.117-0.952
				c0.942,0,1.668,0.344,2.174,1.027h0.08l-0.045-0.502l-0.022-0.487V158h1.055v9.876h-0.854L311.176,166.941z M309.068,167.121
				c0.72,0,1.238-0.196,1.562-0.587c0.324-0.392,0.485-1.023,0.485-1.896v-0.226c0-0.983-0.163-1.688-0.491-2.108
				c-0.328-0.424-0.854-0.634-1.571-0.634c-0.615,0-1.091,0.24-1.419,0.724c-0.325,0.479-0.489,1.155-0.489,2.035
				c0,0.889,0.162,1.56,0.486,2.012C307.959,166.895,308.438,167.121,309.068,167.121z"/>
			<path fill="#444444" d="M320.1,160.919v0.667l-1.285,0.15c0.115,0.146,0.227,0.344,0.314,0.582
				c0.094,0.238,0.141,0.51,0.141,0.811c0,0.682-0.229,1.227-0.697,1.631c-0.465,0.406-1.104,0.609-1.914,0.609
				c-0.207,0-0.402-0.018-0.586-0.053c-0.446,0.238-0.674,0.535-0.674,0.896c0,0.188,0.076,0.331,0.232,0.422
				c0.157,0.093,0.426,0.14,0.809,0.14h1.229c0.753,0,1.332,0.158,1.735,0.478c0.402,0.315,0.604,0.776,0.604,1.384
				c0,0.771-0.31,1.356-0.928,1.764c-0.617,0.401-1.521,0.604-2.703,0.604c-0.91,0-1.607-0.169-2.104-0.508
				c-0.491-0.342-0.737-0.817-0.737-1.438c0-0.425,0.135-0.789,0.405-1.1c0.27-0.311,0.647-0.521,1.144-0.628
				c-0.178-0.081-0.327-0.205-0.446-0.375c-0.121-0.169-0.183-0.366-0.183-0.591c0-0.256,0.063-0.478,0.203-0.666
				c0.136-0.191,0.35-0.375,0.641-0.555c-0.356-0.146-0.649-0.397-0.879-0.754c-0.228-0.354-0.34-0.765-0.34-1.222
				c0-0.762,0.229-1.351,0.687-1.761c0.457-0.413,1.104-0.619,1.942-0.619c0.362,0,0.69,0.042,0.981,0.127L320.1,160.919
				L320.1,160.919z M314.553,169.044c0,0.376,0.158,0.662,0.479,0.856c0.316,0.191,0.771,0.291,1.361,0.291
				c0.887,0,1.541-0.131,1.967-0.396c0.429-0.264,0.642-0.623,0.642-1.074c0-0.378-0.117-0.64-0.353-0.783
				c-0.229-0.146-0.672-0.222-1.312-0.222h-1.266c-0.479,0-0.853,0.114-1.114,0.345
				C314.688,168.289,314.553,168.617,314.553,169.044z M315.123,163.146c0,0.483,0.138,0.854,0.413,1.104
				c0.272,0.249,0.657,0.375,1.147,0.375c1.024,0,1.541-0.5,1.541-1.498c0-1.045-0.521-1.566-1.562-1.566
				c-0.495,0-0.876,0.133-1.146,0.398C315.255,162.229,315.123,162.622,315.123,163.146z"/>
			<path fill="#444444" d="M324.469,168.003c-1.027,0-1.84-0.312-2.435-0.938c-0.595-0.625-0.894-1.496-0.894-2.605
				c0-1.122,0.272-2.016,0.828-2.672c0.553-0.66,1.293-0.99,2.227-0.99c0.871,0,1.562,0.287,2.066,0.858
				c0.51,0.571,0.764,1.329,0.764,2.271v0.667h-4.791c0.021,0.817,0.227,1.438,0.615,1.86c0.394,0.423,0.94,0.635,1.651,0.635
				c0.75,0,1.49-0.154,2.228-0.47v0.938c-0.373,0.159-0.729,0.274-1.062,0.346C325.339,167.968,324.938,168.003,324.469,168.003z
				 M324.184,161.674c-0.56,0-1.004,0.184-1.336,0.547s-0.527,0.867-0.588,1.512h3.637c0-0.666-0.146-1.174-0.439-1.524
				C325.156,161.852,324.732,161.674,324.184,161.674z"/>
			<path fill="#444444" d="M331.068,167.133c0.188,0,0.365-0.014,0.541-0.042c0.173-0.026,0.311-0.056,0.41-0.085v0.807
				c-0.113,0.059-0.281,0.104-0.506,0.141c-0.224,0.033-0.424,0.054-0.602,0.054c-1.348,0-2.021-0.709-2.021-2.126v-4.142h-0.99
				v-0.509l0.996-0.438l0.44-1.482h0.608v1.609h2.02v0.816h-2.02v4.097c0,0.419,0.101,0.74,0.299,0.965
				C330.449,167.021,330.723,167.133,331.068,167.133z"/>
			<path fill="#444444" d="M336.947,167.876v-9.278h1.08v8.303h4.094v0.979L336.947,167.876L336.947,167.876z"/>
			<path fill="#444444" d="M347.814,167.876l-0.215-0.99h-0.051c-0.347,0.438-0.688,0.731-1.037,0.888
				c-0.345,0.152-0.771,0.229-1.289,0.229c-0.688,0-1.229-0.178-1.623-0.532c-0.394-0.354-0.586-0.861-0.586-1.518
				c0-1.405,1.123-2.143,3.367-2.209l1.186-0.038v-0.433c0-0.547-0.117-0.948-0.354-1.209c-0.23-0.26-0.605-0.394-1.127-0.394
				c-0.58,0-1.234,0.181-1.968,0.533l-0.324-0.81c0.345-0.187,0.72-0.332,1.127-0.438c0.408-0.104,0.818-0.158,1.229-0.158
				c0.828,0,1.439,0.186,1.844,0.553c0.396,0.369,0.6,0.959,0.6,1.771v4.75h-0.777L347.814,167.876L347.814,167.876z
				 M345.436,167.133c0.654,0,1.174-0.18,1.549-0.54c0.375-0.358,0.562-0.862,0.562-1.511v-0.628l-1.055,0.044
				c-0.841,0.029-1.441,0.16-1.812,0.393c-0.369,0.229-0.557,0.588-0.557,1.074c0,0.383,0.113,0.672,0.346,0.87
				C344.695,167.034,345.02,167.133,345.436,167.133z"/>
			<path fill="#444444" d="M349.661,160.919h1.13l1.523,3.967c0.334,0.906,0.541,1.562,0.617,1.962h0.055
				c0.056-0.217,0.171-0.586,0.347-1.104c0.176-0.521,0.75-2.133,1.724-4.821h1.135l-2.989,7.922
				c-0.297,0.783-0.646,1.341-1.038,1.666c-0.396,0.328-0.882,0.492-1.457,0.492c-0.32,0-0.639-0.036-0.952-0.104v-0.848
				c0.231,0.055,0.493,0.076,0.781,0.076c0.723,0,1.239-0.404,1.549-1.221l0.388-0.988L349.661,160.919z"/>
			<path fill="#444444" d="M363.32,164.393c0,1.133-0.285,2.021-0.855,2.655c-0.572,0.638-1.357,0.955-2.367,0.955
				c-0.623,0-1.176-0.146-1.654-0.438c-0.481-0.293-0.854-0.711-1.116-1.258c-0.267-0.547-0.396-1.186-0.396-1.916
				c0-1.136,0.282-2.02,0.854-2.647c0.562-0.636,1.354-0.949,2.357-0.949c0.978,0,1.746,0.324,2.319,0.974
				C363.034,162.41,363.32,163.287,363.32,164.393z M358.021,164.393c0,0.892,0.178,1.564,0.528,2.029
				c0.354,0.467,0.878,0.698,1.567,0.698c0.688,0,1.214-0.231,1.57-0.695c0.354-0.464,0.533-1.142,0.533-2.034
				c0-0.885-0.18-1.557-0.533-2.016c-0.356-0.459-0.89-0.688-1.584-0.688c-0.688,0-1.211,0.228-1.562,0.68
				C358.193,162.816,358.021,163.494,358.021,164.393z"/>
			<path fill="#444444" d="M366.159,160.919v4.515c0,0.565,0.129,0.988,0.387,1.271c0.259,0.277,0.663,0.419,1.213,0.419
				c0.729,0,1.261-0.199,1.601-0.599c0.336-0.396,0.506-1.047,0.506-1.947v-3.656h1.053v6.956h-0.869l-0.15-0.935h-0.059
				c-0.217,0.345-0.516,0.604-0.896,0.787c-0.385,0.184-0.818,0.271-1.312,0.271c-0.847,0-1.479-0.201-1.899-0.604
				c-0.422-0.399-0.633-1.045-0.633-1.932v-4.551h1.063L366.159,160.919L366.159,160.919z"/>
			<path fill="#444444" d="M375.396,167.133c0.187,0,0.361-0.014,0.535-0.042c0.178-0.026,0.312-0.056,0.412-0.085v0.807
				c-0.109,0.059-0.277,0.104-0.505,0.141c-0.222,0.033-0.422,0.054-0.601,0.054c-1.35,0-2.021-0.709-2.021-2.126v-4.142h-0.995
				v-0.509l0.995-0.438l0.444-1.482h0.607v1.609h2.021v0.816h-2.021v4.097c0,0.419,0.102,0.74,0.299,0.965
				C374.775,167.021,375.049,167.133,375.396,167.133z"/>
			<path fill="#444444" d="M382.227,165.979c0,0.646-0.238,1.146-0.726,1.498c-0.483,0.354-1.159,0.526-2.03,0.526
				c-0.923,0-1.643-0.146-2.158-0.438v-0.979c0.338,0.169,0.692,0.305,1.076,0.398c0.387,0.099,0.752,0.146,1.106,0.146
				c0.551,0,0.974-0.088,1.271-0.263c0.297-0.178,0.444-0.443,0.444-0.805c0-0.271-0.118-0.502-0.353-0.693
				c-0.235-0.193-0.693-0.42-1.375-0.686c-0.647-0.24-1.107-0.451-1.385-0.632c-0.271-0.182-0.477-0.386-0.604-0.612
				c-0.134-0.229-0.2-0.5-0.2-0.816c0-0.564,0.23-1.018,0.691-1.342c0.461-0.328,1.095-0.492,1.896-0.492
				c0.749,0,1.48,0.15,2.196,0.457l-0.375,0.855c-0.697-0.289-1.33-0.435-1.897-0.435c-0.498,0-0.876,0.078-1.13,0.233
				c-0.254,0.156-0.381,0.373-0.381,0.646c0,0.188,0.048,0.35,0.144,0.479c0.1,0.132,0.248,0.257,0.465,0.375
				c0.211,0.119,0.613,0.289,1.219,0.515c0.824,0.3,1.382,0.604,1.672,0.908C382.08,165.131,382.227,165.518,382.227,165.979z"/>
		</g>
	</g>
	<g id="sidebar_layouts">
		<g>
			<path fill="#444444" d="M296.514,10.531c0,0.817-0.297,1.454-0.89,1.911s-1.396,0.686-2.412,0.686
				c-1.101,0-1.946-0.142-2.539-0.425v-1.041c0.382,0.161,0.796,0.288,1.244,0.381s0.894,0.14,1.333,0.14
				c0.721,0,1.262-0.136,1.625-0.41c0.363-0.272,0.546-0.652,0.546-1.139c0-0.322-0.063-0.585-0.192-0.791
				c-0.129-0.205-0.346-0.395-0.646-0.568c-0.304-0.173-0.765-0.37-1.381-0.59c-0.863-0.309-1.479-0.675-1.853-1.098
				c-0.371-0.423-0.559-0.976-0.559-1.657c0-0.715,0.271-1.284,0.809-1.708c0.535-0.424,1.248-0.635,2.133-0.635
				c0.926,0,1.771,0.169,2.545,0.508l-0.336,0.939c-0.768-0.322-1.51-0.482-2.231-0.482c-0.569,0-1.021,0.123-1.34,0.368
				c-0.321,0.246-0.479,0.586-0.479,1.022c0,0.322,0.061,0.585,0.178,0.79c0.119,0.206,0.316,0.394,0.603,0.565
				c0.28,0.171,0.712,0.36,1.292,0.568c0.975,0.347,1.645,0.719,2.012,1.117C296.336,9.38,296.514,9.896,296.514,10.531z"/>
			<path fill="#444444" d="M298.163,4.158c0-0.241,0.06-0.418,0.178-0.53c0.118-0.112,0.269-0.168,0.444-0.168
				c0.169,0,0.312,0.057,0.438,0.171c0.123,0.114,0.188,0.29,0.188,0.527c0,0.237-0.062,0.414-0.188,0.53
				c-0.121,0.117-0.269,0.175-0.438,0.175c-0.178,0-0.326-0.058-0.444-0.175S298.163,4.395,298.163,4.158z M299.307,13h-1.055V6.043
				h1.055V13z"/>
			<path fill="#444444" d="M306.275,12.067h-0.062c-0.482,0.707-1.214,1.06-2.184,1.06c-0.909,0-1.617-0.311-2.123-0.933
				c-0.508-0.622-0.76-1.506-0.76-2.653s0.256-2.038,0.764-2.672c0.508-0.634,1.214-0.952,2.119-0.952
				c0.939,0,1.668,0.343,2.172,1.028h0.082l-0.045-0.501l-0.025-0.489V3.124h1.059V13h-0.856L306.275,12.067z M304.168,12.245
				c0.721,0,1.241-0.196,1.564-0.587c0.322-0.391,0.48-1.023,0.48-1.895V9.541c0-0.986-0.16-1.689-0.488-2.111
				c-0.326-0.421-0.854-0.631-1.57-0.631c-0.617,0-1.09,0.24-1.418,0.72s-0.491,1.159-0.491,2.035c0,0.889,0.161,1.56,0.487,2.012
				C303.059,12.018,303.537,12.245,304.168,12.245z"/>
			<path fill="#444444" d="M312.445,13.127c-1.029,0-1.84-0.313-2.438-0.939c-0.595-0.626-0.892-1.496-0.892-2.609
				c0-1.122,0.271-2.012,0.824-2.672c0.556-0.66,1.297-0.99,2.229-0.99c0.872,0,1.562,0.287,2.068,0.86
				c0.509,0.573,0.763,1.33,0.763,2.269v0.667h-4.792c0.021,0.817,0.229,1.437,0.618,1.86c0.391,0.423,0.938,0.635,1.649,0.635
				c0.75,0,1.489-0.157,2.227-0.47v0.939c-0.373,0.161-0.729,0.276-1.061,0.346C313.314,13.092,312.914,13.127,312.445,13.127z
				 M312.159,6.798c-0.562,0-1.005,0.182-1.336,0.546c-0.332,0.364-0.528,0.868-0.587,1.511h3.637c0-0.665-0.148-1.173-0.443-1.527
				C313.133,6.975,312.709,6.798,312.159,6.798z"/>
			<path fill="#444444" d="M320.037,5.929c0.914,0,1.624,0.312,2.13,0.937c0.506,0.624,0.758,1.507,0.758,2.65
				s-0.255,2.03-0.765,2.663c-0.51,0.633-1.219,0.949-2.123,0.949c-0.453,0-0.866-0.083-1.241-0.251
				c-0.374-0.167-0.688-0.424-0.942-0.771h-0.074L317.557,13H316.8V3.123h1.054v2.399c0,0.538-0.017,1.02-0.051,1.447h0.051
				C318.346,6.276,319.072,5.929,320.037,5.929z M319.885,6.811c-0.72,0-1.234,0.207-1.556,0.619
				c-0.315,0.413-0.478,1.108-0.478,2.085s0.162,1.677,0.486,2.098c0.325,0.421,0.852,0.631,1.566,0.631
				c0.646,0,1.131-0.236,1.443-0.708c0.317-0.472,0.479-1.15,0.479-2.035c0-0.906-0.158-1.581-0.479-2.025
				C321.038,7.032,320.549,6.811,319.885,6.811z"/>
			<path fill="#444444" d="M329.044,13l-0.21-0.99h-0.051c-0.35,0.436-0.692,0.731-1.037,0.886
				c-0.346,0.154-0.775,0.231-1.292,0.231c-0.688,0-1.229-0.178-1.622-0.533c-0.393-0.354-0.587-0.861-0.587-1.517
				c0-1.405,1.124-2.141,3.37-2.209l1.182-0.038V8.398c0-0.546-0.117-0.949-0.354-1.209c-0.234-0.26-0.609-0.39-1.127-0.39
				c-0.58,0-1.234,0.178-1.969,0.533l-0.322-0.806c0.344-0.186,0.719-0.332,1.127-0.438c0.406-0.106,0.816-0.159,1.229-0.159
				c0.829,0,1.444,0.184,1.844,0.552c0.4,0.368,0.604,0.958,0.604,1.771V13H329.044z M326.664,12.257c0.654,0,1.171-0.18,1.545-0.54
				c0.375-0.36,0.562-0.863,0.562-1.511V9.578l-1.06,0.044c-0.838,0.03-1.438,0.16-1.812,0.391c-0.369,0.23-0.559,0.589-0.559,1.076
				c0,0.381,0.114,0.671,0.348,0.87C325.925,12.158,326.249,12.257,326.664,12.257z"/>
			<path fill="#444444" d="M335.17,5.916c0.309,0,0.586,0.025,0.832,0.076l-0.146,0.978c-0.287-0.062-0.541-0.095-0.763-0.095
				c-0.562,0-1.044,0.229-1.442,0.686c-0.396,0.457-0.602,1.026-0.602,1.708V13h-1.054V6.043h0.869l0.12,1.289h0.052
				c0.258-0.453,0.567-0.802,0.935-1.047C334.334,6.039,334.734,5.916,335.17,5.916z"/>
			<path fill="#444444" d="M341,13V3.72h1.08v8.303h4.094V13H341z"/>
			<path fill="#444444" d="M351.867,13l-0.21-0.99h-0.052c-0.351,0.436-0.691,0.731-1.037,0.886
				c-0.348,0.154-0.774,0.231-1.291,0.231c-0.689,0-1.23-0.178-1.622-0.533c-0.396-0.354-0.587-0.861-0.587-1.517
				c0-1.405,1.123-2.141,3.369-2.209l1.183-0.038V8.398c0-0.546-0.118-0.949-0.354-1.209c-0.23-0.26-0.605-0.39-1.127-0.39
				c-0.58,0-1.23,0.178-1.968,0.533l-0.323-0.806c0.348-0.186,0.723-0.332,1.127-0.438c0.407-0.106,0.817-0.159,1.229-0.159
				c0.829,0,1.443,0.184,1.844,0.552s0.604,0.958,0.604,1.771V13H351.867z M349.486,12.257c0.652,0,1.172-0.18,1.546-0.54
				c0.375-0.36,0.562-0.863,0.562-1.511V9.578l-1.055,0.044c-0.838,0.03-1.441,0.16-1.812,0.391
				c-0.365,0.23-0.556,0.589-0.556,1.076c0,0.381,0.115,0.671,0.347,0.87C348.748,12.158,349.072,12.257,349.486,12.257z"/>
			<path fill="#444444" d="M353.715,6.043h1.131l1.522,3.967c0.334,0.906,0.542,1.56,0.622,1.961h0.051
				c0.055-0.216,0.17-0.585,0.346-1.107c0.18-0.523,0.75-2.13,1.729-4.821h1.13l-2.989,7.922c-0.297,0.783-0.643,1.338-1.038,1.666
				c-0.395,0.328-0.882,0.492-1.456,0.492c-0.318,0-0.64-0.036-0.953-0.108v-0.844c0.232,0.051,0.494,0.076,0.781,0.076
				c0.725,0,1.239-0.406,1.549-1.219l0.392-0.99L353.715,6.043z"/>
			<path fill="#444444" d="M367.375,9.515c0,1.134-0.286,2.02-0.855,2.657c-0.568,0.637-1.357,0.955-2.365,0.955
				c-0.621,0-1.178-0.146-1.656-0.438c-0.482-0.292-0.854-0.711-1.117-1.257c-0.262-0.546-0.393-1.185-0.393-1.917
				c0-1.134,0.279-2.018,0.85-2.65c0.566-0.633,1.354-0.949,2.361-0.949c0.974,0,1.746,0.324,2.316,0.971
				C367.088,7.534,367.375,8.411,367.375,9.515z M362.075,9.515c0,0.889,0.178,1.566,0.532,2.031s0.879,0.698,1.563,0.698
				c0.688,0,1.214-0.232,1.571-0.695c0.354-0.464,0.535-1.142,0.535-2.035c0-0.884-0.182-1.556-0.535-2.015
				c-0.357-0.459-0.887-0.689-1.584-0.689c-0.689,0-1.21,0.227-1.562,0.679C362.248,7.941,362.075,8.618,362.075,9.515z"/>
			<path fill="#444444" d="M370.212,6.043v4.513c0,0.567,0.129,0.99,0.388,1.27c0.262,0.279,0.662,0.419,1.213,0.419
				c0.729,0,1.264-0.199,1.601-0.597c0.336-0.398,0.505-1.047,0.505-1.949V6.043h1.053V13h-0.869l-0.148-0.933h-0.061
				c-0.218,0.343-0.517,0.605-0.896,0.787s-0.82,0.273-1.312,0.273c-0.847,0-1.479-0.201-1.896-0.603s-0.633-1.045-0.633-1.93V6.043
				H370.212z"/>
			<path fill="#444444" d="M379.448,12.257c0.187,0,0.366-0.014,0.54-0.042c0.173-0.027,0.311-0.056,0.412-0.085v0.806
				c-0.114,0.055-0.282,0.101-0.51,0.137c-0.222,0.036-0.422,0.054-0.6,0.054c-1.346,0-2.02-0.709-2.02-2.126V6.862h-0.996V6.354
				l0.996-0.438l0.44-1.485h0.608v1.612h2.02v0.819h-2.02v4.094c0,0.419,0.101,0.741,0.299,0.965
				C378.828,12.145,379.102,12.257,379.448,12.257z"/>
			<path fill="#444444" d="M386.277,11.102c0,0.647-0.241,1.147-0.729,1.498c-0.479,0.351-1.158,0.527-2.027,0.527
				c-0.926,0-1.646-0.146-2.157-0.438v-0.978c0.335,0.169,0.688,0.303,1.075,0.4c0.384,0.097,0.752,0.146,1.104,0.146
				c0.552,0,0.978-0.088,1.271-0.263c0.297-0.176,0.441-0.443,0.441-0.803c0-0.271-0.117-0.502-0.354-0.695
				c-0.234-0.193-0.692-0.42-1.373-0.683c-0.648-0.241-1.108-0.452-1.381-0.632c-0.273-0.18-0.479-0.384-0.609-0.612
				c-0.135-0.229-0.2-0.501-0.2-0.819c0-0.567,0.229-1.015,0.692-1.342c0.461-0.328,1.094-0.492,1.896-0.492
				c0.749,0,1.481,0.152,2.196,0.457l-0.375,0.857c-0.697-0.288-1.33-0.432-1.896-0.432c-0.498,0-0.877,0.078-1.133,0.235
				c-0.254,0.157-0.381,0.373-0.381,0.647c0,0.186,0.048,0.345,0.146,0.476c0.096,0.131,0.248,0.256,0.461,0.375
				c0.211,0.119,0.615,0.29,1.219,0.514c0.824,0.3,1.382,0.603,1.672,0.908C386.132,10.258,386.277,10.641,386.277,11.102z"/>
		</g>
		<rect id="sidebar-a_10_" x="290" y="24" opacity="0.2" enable-background="new    " width="9" height="43"/>
		<rect id="sidebar-b_5_" x="304" y="24" opacity="0.2" enable-background="new    " width="9" height="43"/>
		<rect id="content_12_" x="318" y="24" opacity="0.05" enable-background="new    " width="40" height="43"/>
		<rect id="sidebar-a_9_" x="432" y="24" opacity="0.2" enable-background="new    " width="9" height="43"/>
		<rect id="sidebar-b_4_" x="446" y="24" opacity="0.2" enable-background="new    " width="9" height="43"/>
		<rect id="content_11_" x="388" y="24" opacity="0.05" enable-background="new    " width="39" height="43"/>
		<rect id="sidebar-a_8_" x="481" y="24" opacity="0.2" enable-background="new    " width="9" height="43"/>
		<rect id="sidebar-b_3_" x="541" y="24" opacity="0.2" enable-background="new    " width="9" height="43"/>
		<rect id="content_10_" x="495" y="24" opacity="0.05" enable-background="new    " width="41" height="43"/>
		<rect id="sidebar-a_7_" x="290" y="87" opacity="0.2" enable-background="new    " width="9" height="43"/>
		<rect id="content_9_" x="304" y="87" opacity="0.05" enable-background="new    " width="53" height="43"/>
		<rect id="sidebar-a_6_" x="446" y="87" opacity="0.2" enable-background="new    " width="9" height="43"/>
		<rect id="content_8_" x="388" y="87" opacity="0.05" enable-background="new    " width="53" height="43"/>
		<rect id="content_7_" x="482" y="87" opacity="0.05" enable-background="new    " width="68" height="43"/>
	</g>
	<g>
		<path fill="#444444" d="M300.957,190.447c0,0.65-0.223,1.15-0.666,1.501c-0.443,0.35-1.078,0.524-1.904,0.524h-0.756V195h-0.748
			v-6.425h1.666C300.154,188.575,300.957,189.199,300.957,190.447z M297.631,191.832h0.672c0.662,0,1.143-0.107,1.438-0.321
			c0.295-0.214,0.442-0.557,0.442-1.028c0-0.424-0.141-0.739-0.418-0.947s-0.711-0.312-1.302-0.312h-0.834L297.631,191.832
			L297.631,191.832z"/>
		<path fill="#444444" d="M306.34,195l-0.8-2.043h-2.575L302.174,195h-0.756l2.54-6.451h0.628l2.527,6.451H306.34z M305.307,192.284
			l-0.746-1.991c-0.098-0.251-0.195-0.561-0.299-0.927c-0.063,0.28-0.156,0.591-0.275,0.927l-0.758,1.991H305.307z"/>
		<path fill="#444444" d="M308.744,192.328V195h-0.748v-6.425h1.763c0.788,0,1.37,0.151,1.747,0.452
			c0.376,0.303,0.564,0.756,0.564,1.363c0,0.85-0.432,1.424-1.293,1.723l1.746,2.887h-0.885l-1.557-2.672H308.744z M308.744,191.688
			h1.021c0.527,0,0.914-0.104,1.16-0.313c0.246-0.209,0.369-0.522,0.369-0.94c0-0.427-0.125-0.73-0.376-0.918
			c-0.25-0.188-0.651-0.281-1.206-0.281h-0.971L308.744,191.688L308.744,191.688z"/>
		<path fill="#444444" d="M317.6,195l-0.8-2.043h-2.575L313.434,195h-0.756l2.54-6.451h0.628l2.527,6.451H317.6z M316.566,192.284
			l-0.746-1.991c-0.1-0.251-0.197-0.561-0.299-0.927c-0.065,0.28-0.158,0.591-0.277,0.927l-0.756,1.991H316.566z"/>
		<path fill="#444444" d="M319.256,195v-6.425h0.748v5.748h2.834V195H319.256z"/>
		<path fill="#444444" d="M327.509,195h-3.582v-6.425h3.582v0.663h-2.834v2.07h2.662v0.657h-2.662v2.364h2.834V195z"/>
		<path fill="#444444" d="M328.932,195v-6.425h0.748v5.748h2.834V195H328.932z"/>
		<path fill="#444444" d="M333.604,195v-6.425h0.748v5.748h2.834V195H333.604z"/>
		<path fill="#444444" d="M300.509,236.091c0,0.565-0.204,1.007-0.614,1.322s-0.968,0.476-1.67,0.476
			c-0.763,0-1.349-0.099-1.759-0.296v-0.721c0.265,0.112,0.552,0.2,0.861,0.265c0.312,0.064,0.618,0.098,0.923,0.098
			c0.498,0,0.873-0.096,1.125-0.283s0.378-0.451,0.378-0.788c0-0.224-0.045-0.405-0.134-0.548c-0.09-0.143-0.239-0.272-0.448-0.395
			c-0.21-0.119-0.528-0.257-0.956-0.408c-0.598-0.215-1.023-0.467-1.281-0.76c-0.256-0.294-0.385-0.677-0.385-1.146
			c0-0.495,0.188-0.891,0.559-1.184c0.373-0.293,0.865-0.438,1.479-0.438c0.639,0,1.227,0.116,1.762,0.353l-0.23,0.649
			c-0.53-0.224-1.047-0.334-1.547-0.334c-0.396,0-0.705,0.086-0.93,0.256c-0.223,0.17-0.332,0.405-0.332,0.707
			c0,0.224,0.039,0.403,0.121,0.547s0.223,0.271,0.416,0.394c0.194,0.117,0.492,0.25,0.896,0.394
			c0.673,0.24,1.137,0.498,1.391,0.772C300.382,235.294,300.509,235.65,300.509,236.091z"/>
		<path fill="#444444" d="M303.801,237.8h-0.748v-5.762h-2.033v-0.663h4.815v0.663h-2.034V237.8L303.801,237.8z"/>
		<path fill="#444444" d="M310.84,237.8l-0.8-2.043h-2.575l-0.791,2.043h-0.756l2.54-6.45h0.628l2.527,6.45H310.84z
			 M309.807,235.084l-0.746-1.991c-0.098-0.251-0.195-0.561-0.299-0.927c-0.063,0.281-0.156,0.591-0.275,0.927l-0.758,1.991H309.807
			z"/>
		<path fill="#444444" d="M315.248,231.95c-0.707,0-1.264,0.235-1.673,0.706c-0.408,0.47-0.612,1.113-0.612,1.931
			c0,0.843,0.196,1.491,0.592,1.949c0.395,0.459,0.955,0.688,1.686,0.688c0.447,0,0.96-0.08,1.533-0.242v0.656
			c-0.444,0.166-0.994,0.25-1.646,0.25c-0.947,0-1.677-0.287-2.191-0.861c-0.514-0.574-0.771-1.392-0.771-2.447
			c0-0.662,0.124-1.242,0.372-1.74c0.247-0.498,0.604-0.882,1.072-1.152c0.467-0.269,1.017-0.402,1.647-0.402
			c0.675,0,1.263,0.123,1.769,0.367l-0.315,0.645C316.221,232.064,315.732,231.95,315.248,231.95z"/>
		<path fill="#444444" d="M322.814,237.8h-0.881l-2.342-3.114l-0.672,0.599v2.518h-0.748v-6.425h0.748v3.188l2.913-3.188h0.884
			l-2.584,2.79L322.814,237.8z"/>
		<path fill="#444444" d="M327.279,237.8h-3.581v-6.425h3.581v0.663h-2.834v2.069h2.662v0.66h-2.662v2.362h2.834V237.8z"/>
		<path fill="#444444" d="M333.832,234.525c0,1.062-0.288,1.871-0.863,2.433c-0.576,0.562-1.402,0.842-2.484,0.842h-1.779v-6.425
			h1.969c0.999,0,1.775,0.275,2.33,0.831C333.555,232.759,333.832,233.532,333.832,234.525z M333.041,234.552
			c0-0.837-0.21-1.469-0.631-1.894c-0.42-0.426-1.045-0.639-1.874-0.639h-1.085v5.133h0.908c0.892,0,1.561-0.219,2.01-0.655
			C332.816,236.059,333.041,235.411,333.041,234.552z"/>
		<path fill="#444444" d="M302.012,277.326c0,1.061-0.287,1.871-0.861,2.432c-0.576,0.562-1.404,0.842-2.485,0.842h-1.78v-6.425
			h1.969c1,0,1.775,0.276,2.33,0.831C301.734,275.559,302.012,276.332,302.012,277.326z M301.221,277.352
			c0-0.836-0.209-1.469-0.631-1.894c-0.42-0.425-1.045-0.638-1.874-0.638h-1.085v5.133h0.909c0.892,0,1.56-0.219,2.009-0.656
			C300.996,278.857,301.221,278.211,301.221,277.352z"/>
		<path fill="#444444" d="M309.021,277.379c0,1.027-0.262,1.836-0.78,2.426c-0.521,0.588-1.243,0.883-2.168,0.883
			c-0.947,0-1.677-0.289-2.191-0.867c-0.514-0.577-0.771-1.396-0.771-2.449c0-1.045,0.258-1.855,0.771-2.434
			c0.518-0.576,1.248-0.861,2.197-0.861c0.924,0,1.645,0.293,2.162,0.879C308.762,275.539,309.021,276.348,309.021,277.379z
			 M303.9,277.379c0,0.869,0.186,1.529,0.557,1.979c0.37,0.449,0.908,0.677,1.615,0.677c0.711,0,1.248-0.226,1.611-0.675
			c0.362-0.446,0.545-1.106,0.545-1.979c0-0.862-0.182-1.521-0.543-1.967c-0.36-0.447-0.896-0.67-1.605-0.67
			c-0.711,0-1.253,0.225-1.623,0.674C304.086,275.866,303.9,276.521,303.9,277.379z"/>
		<path fill="#444444" d="M315.305,274.175v4.157c0,0.732-0.221,1.309-0.662,1.727c-0.441,0.42-1.051,0.629-1.822,0.629
			c-0.773,0-1.372-0.211-1.797-0.633c-0.424-0.422-0.635-1.002-0.635-1.74v-4.14h0.746v4.192c0,0.535,0.146,0.947,0.439,1.234
			s0.724,0.432,1.292,0.432c0.542,0,0.959-0.145,1.253-0.434c0.292-0.289,0.438-0.703,0.438-1.242v-4.185L315.305,274.175
			L315.305,274.175z"/>
		<path fill="#444444" d="M317.006,274.175h1.814c0.854,0,1.47,0.128,1.852,0.382c0.381,0.256,0.57,0.658,0.57,1.209
			c0,0.381-0.105,0.695-0.318,0.942c-0.212,0.248-0.521,0.408-0.93,0.481v0.043c0.977,0.168,1.464,0.681,1.464,1.539
			c0,0.572-0.194,1.021-0.582,1.345c-0.39,0.321-0.933,0.483-1.628,0.483h-2.242V274.175L317.006,274.175z M317.754,276.926h1.23
			c0.525,0,0.904-0.083,1.138-0.248c0.229-0.166,0.347-0.443,0.347-0.838c0-0.359-0.129-0.619-0.387-0.779s-0.668-0.239-1.23-0.239
			h-1.098V276.926z M317.754,277.559v2.404h1.34c0.52,0,0.909-0.102,1.172-0.302c0.264-0.2,0.395-0.515,0.395-0.942
			c0-0.398-0.135-0.691-0.402-0.879s-0.676-0.281-1.224-0.281H317.754z"/>
		<path fill="#444444" d="M322.837,280.6v-6.425h0.748v5.748h2.834v0.677H322.837z"/>
		<path fill="#444444" d="M331.09,280.6h-3.582v-6.425h3.582v0.663h-2.834v2.07h2.662v0.658h-2.662v2.365h2.834V280.6z"/>
		<path fill="#444444" d="M337.643,277.326c0,1.061-0.287,1.871-0.861,2.432c-0.576,0.562-1.404,0.842-2.485,0.842h-1.78v-6.425
			h1.971c0.998,0,1.773,0.276,2.33,0.831C337.365,275.559,337.643,276.332,337.643,277.326z M336.852,277.352
			c0-0.836-0.209-1.469-0.631-1.894c-0.42-0.425-1.045-0.638-1.873-0.638h-1.086v5.133h0.909c0.892,0,1.562-0.219,2.009-0.656
			C336.627,278.857,336.852,278.211,336.852,277.352z"/>
	</g>
	<g>
		<rect id="toolbar-l" y="3" opacity="0.05" enable-background="new    " width="133" height="17"/>
		<rect id="toolbar-r" x="137" y="3" opacity="0.05" enable-background="new    " width="122" height="17"/>
		<rect id="logo" x="103" y="25" opacity="0.05" enable-background="new    " width="54" height="17"/>
		<rect id="headerbar" x="162" y="25" opacity="0.05" enable-background="new    " width="98" height="17"/>
		<rect id="menu" y="47" opacity="0.05" enable-background="new    " width="201" height="17"/>
		<rect id="search" x="206" y="47" opacity="0.05" enable-background="new    " width="54" height="17"/>
		<g id="top-a" opacity="0.1">
			<rect y="69" fill="#777777" width="260" height="22"/>
		</g>
		<g id="top-b" opacity="0.1">
			<rect y="96" fill="#777777" width="260" height="22"/>
		</g>
		<rect id="sidebar-a__x28_left_x29_" y="123" opacity="0.2" fill="#444444" enable-background="new    " width="26" height="92"/>
		
			<rect id="sidebar-b__x28_left_x29_" x="31" y="123" opacity="0.2" fill="#444444" enable-background="new    " width="26" height="92"/>
		
			<rect id="sidebar-a__x28_right_x29_" x="234" y="123" opacity="0.2" fill="#444444" enable-background="new    " width="26" height="92"/>
		
			<rect id="sidebar-b__x28_right_x29_" x="203" y="123" opacity="0.2" fill="#444444" enable-background="new    " width="26" height="92"/>
		<g id="inner_top" opacity="0.1">
			<rect x="62" y="123" fill="#777777" width="136" height="20"/>
		</g>
		<rect id="content" x="62" y="148" opacity="0.05" enable-background="new    " width="136" height="42"/>
		<g id="inner_bottom" opacity="0.1">
			<rect x="62" y="195" fill="#777777" width="136" height="20"/>
		</g>
		<g id="bottom-a" opacity="0.1">
			<rect y="220" fill="#777777" width="260" height="22"/>
		</g>
		<g id="bottom-b" opacity="0.1">
			<rect y="247" fill="#777777" width="260" height="22"/>
		</g>
		<rect id="footer" y="301" opacity="0.05" enable-background="new    " width="260" height="17"/>
		<g>
			<path fill="#444444" d="M46.282,15h-0.747V9.239H43.5V8.575h4.816v0.664h-2.035L46.282,15L46.282,15z"/>
			<path fill="#444444" d="M54.86,11.779c0,1.028-0.26,1.837-0.78,2.426s-1.243,0.883-2.168,0.883c-0.946,0-1.676-0.289-2.191-0.868
				c-0.514-0.578-0.771-1.395-0.771-2.45c0-1.046,0.258-1.857,0.773-2.432c0.516-0.576,1.248-0.864,2.197-0.864
				c0.923,0,1.644,0.293,2.162,0.879S54.86,10.748,54.86,11.779z M49.74,11.779c0,0.87,0.185,1.53,0.556,1.98
				c0.37,0.45,0.909,0.674,1.615,0.674c0.712,0,1.25-0.224,1.613-0.672c0.363-0.448,0.545-1.109,0.545-1.982
				c0-0.864-0.181-1.52-0.543-1.966c-0.362-0.446-0.897-0.67-1.606-0.67c-0.712,0-1.253,0.225-1.624,0.674
				C49.925,10.267,49.74,10.92,49.74,11.779z"/>
			<path fill="#444444" d="M61.869,11.779c0,1.028-0.26,1.837-0.78,2.426s-1.243,0.883-2.168,0.883
				c-0.946,0-1.676-0.289-2.191-0.868c-0.514-0.578-0.771-1.395-0.771-2.45c0-1.046,0.258-1.857,0.773-2.432
				c0.516-0.576,1.248-0.864,2.197-0.864c0.923,0,1.644,0.293,2.162,0.879C61.609,9.939,61.869,10.748,61.869,11.779z M56.75,11.779
				c0,0.87,0.185,1.53,0.556,1.98c0.37,0.45,0.909,0.674,1.615,0.674c0.712,0,1.25-0.224,1.613-0.672
				c0.363-0.448,0.545-1.109,0.545-1.982c0-0.864-0.181-1.52-0.543-1.966c-0.362-0.446-0.897-0.67-1.606-0.67
				c-0.712,0-1.253,0.225-1.624,0.674C56.935,10.267,56.75,10.92,56.75,11.779z"/>
			<path fill="#444444" d="M63.302,15V8.575h0.747v5.748h2.834V15H63.302z"/>
			<path fill="#444444" d="M67.973,8.575h1.815c0.853,0,1.469,0.127,1.85,0.382c0.381,0.255,0.571,0.658,0.571,1.208
				c0,0.381-0.106,0.695-0.319,0.942c-0.212,0.248-0.522,0.408-0.929,0.481v0.044c0.976,0.167,1.463,0.68,1.463,1.538
				c0,0.574-0.194,1.022-0.582,1.345C71.454,14.839,70.912,15,70.214,15h-2.241V8.575z M68.72,11.326h1.23
				c0.527,0,0.907-0.083,1.138-0.248s0.347-0.445,0.347-0.837c0-0.36-0.129-0.62-0.387-0.78c-0.258-0.16-0.668-0.24-1.23-0.24H68.72
				V11.326z M68.72,11.959v2.404h1.34c0.519,0,0.909-0.1,1.171-0.301c0.262-0.2,0.394-0.515,0.394-0.942
				c0-0.398-0.134-0.691-0.402-0.879c-0.268-0.188-0.676-0.281-1.224-0.281L68.72,11.959L68.72,11.959z"/>
			<path fill="#444444" d="M77.843,15l-0.8-2.043h-2.575L73.677,15h-0.756l2.54-6.451h0.628L78.617,15H77.843z M76.811,12.284
				l-0.747-1.991c-0.097-0.252-0.196-0.561-0.299-0.927c-0.064,0.281-0.157,0.59-0.277,0.927l-0.756,1.991H76.811z"/>
			<path fill="#444444" d="M80.247,12.328V15H79.5V8.575h1.762c0.788,0,1.37,0.151,1.747,0.453c0.376,0.302,0.564,0.756,0.564,1.362
				c0,0.85-0.431,1.424-1.292,1.723L84.026,15h-0.883l-1.556-2.672H80.247z M80.247,11.687h1.024c0.527,0,0.914-0.104,1.16-0.314
				c0.246-0.209,0.369-0.523,0.369-0.942c0-0.425-0.125-0.731-0.376-0.918c-0.25-0.188-0.652-0.281-1.206-0.281h-0.971V11.687z"/>
			<path fill="#444444" d="M84.549,12.921v-0.668h2.158v0.668H84.549z"/>
			<path fill="#444444" d="M87.959,15V8.575h0.747v5.748h2.834V15H87.959z"/>
		</g>
		<g>
			<path fill="#444444" d="M175.795,14.912h-0.747V9.15h-2.035V8.487h4.816V9.15h-2.035L175.795,14.912L175.795,14.912z"/>
			<path fill="#444444" d="M184.374,11.691c0,1.027-0.26,1.836-0.78,2.426c-0.52,0.588-1.243,0.883-2.168,0.883
				c-0.946,0-1.676-0.289-2.191-0.868c-0.514-0.578-0.771-1.396-0.771-2.45c0-1.045,0.258-1.856,0.773-2.432
				c0.516-0.576,1.248-0.863,2.197-0.863c0.923,0,1.644,0.293,2.162,0.879S184.374,10.66,184.374,11.691z M179.254,11.691
				c0,0.869,0.185,1.529,0.556,1.979c0.37,0.449,0.909,0.675,1.615,0.675c0.712,0,1.25-0.225,1.613-0.673
				c0.363-0.448,0.545-1.108,0.545-1.981c0-0.864-0.181-1.521-0.543-1.967c-0.362-0.447-0.897-0.67-1.606-0.67
				c-0.712,0-1.253,0.225-1.624,0.674C179.439,10.179,179.254,10.833,179.254,11.691z"/>
			<path fill="#444444" d="M191.383,11.691c0,1.027-0.26,1.836-0.78,2.426c-0.52,0.588-1.243,0.883-2.168,0.883
				c-0.946,0-1.676-0.289-2.191-0.868c-0.514-0.578-0.771-1.396-0.771-2.45c0-1.045,0.258-1.856,0.773-2.432
				c0.516-0.576,1.248-0.863,2.197-0.863c0.923,0,1.644,0.293,2.162,0.879S191.383,10.66,191.383,11.691z M186.263,11.691
				c0,0.869,0.185,1.529,0.556,1.979c0.37,0.449,0.909,0.675,1.615,0.675c0.712,0,1.25-0.225,1.613-0.673
				c0.363-0.448,0.545-1.108,0.545-1.981c0-0.864-0.181-1.521-0.543-1.967c-0.362-0.447-0.897-0.67-1.606-0.67
				c-0.712,0-1.253,0.225-1.624,0.674C186.448,10.179,186.263,10.833,186.263,11.691z"/>
			<path fill="#444444" d="M192.815,14.912V8.487h0.747v5.748h2.834v0.677H192.815z"/>
			<path fill="#444444" d="M197.487,8.487h1.815c0.853,0,1.469,0.128,1.851,0.382c0.381,0.256,0.57,0.658,0.57,1.209
				c0,0.381-0.105,0.695-0.318,0.942c-0.213,0.248-0.522,0.408-0.929,0.481v0.044c0.976,0.167,1.463,0.68,1.463,1.538
				c0,0.574-0.194,1.022-0.582,1.345c-0.389,0.322-0.931,0.483-1.628,0.483h-2.241L197.487,8.487L197.487,8.487z M198.234,11.238
				h1.23c0.527,0,0.907-0.083,1.138-0.248c0.231-0.166,0.347-0.444,0.347-0.838c0-0.359-0.129-0.62-0.387-0.779
				c-0.258-0.16-0.668-0.24-1.23-0.24h-1.099L198.234,11.238L198.234,11.238z M198.234,11.871v2.404h1.34
				c0.519,0,0.909-0.101,1.171-0.302c0.262-0.2,0.394-0.515,0.394-0.942c0-0.398-0.134-0.691-0.402-0.879s-0.676-0.281-1.224-0.281
				H198.234z"/>
			<path fill="#444444" d="M207.357,14.912l-0.801-2.043h-2.574l-0.791,2.043h-0.756l2.539-6.451h0.629l2.527,6.451H207.357z
				 M206.324,12.196l-0.747-1.991c-0.097-0.251-0.196-0.561-0.299-0.927c-0.064,0.281-0.157,0.591-0.276,0.927l-0.756,1.991H206.324
				z"/>
			<path fill="#444444" d="M209.761,12.24v2.672h-0.747V8.487h1.762c0.789,0,1.371,0.151,1.748,0.452
				c0.375,0.303,0.564,0.756,0.564,1.363c0,0.85-0.432,1.424-1.293,1.723l1.745,2.887h-0.884l-1.555-2.672H209.761z M209.761,11.599
				h1.024c0.527,0,0.914-0.104,1.16-0.314c0.246-0.209,0.369-0.523,0.369-0.942c0-0.425-0.125-0.73-0.377-0.918
				c-0.25-0.188-0.652-0.281-1.205-0.281h-0.972L209.761,11.599L209.761,11.599z"/>
			<path fill="#444444" d="M214.062,12.834v-0.668h2.158v0.668H214.062z"/>
			<path fill="#444444" d="M218.221,12.24v2.672h-0.748V8.487h1.763c0.788,0,1.37,0.151,1.747,0.452
				c0.376,0.303,0.564,0.756,0.564,1.363c0,0.85-0.431,1.424-1.292,1.723L222,14.912h-0.884l-1.556-2.672H218.221z M218.221,11.599
				h1.023c0.527,0,0.914-0.104,1.16-0.314c0.246-0.209,0.369-0.523,0.369-0.942c0-0.425-0.125-0.73-0.376-0.918
				c-0.25-0.188-0.652-0.281-1.206-0.281h-0.971L218.221,11.599L218.221,11.599z"/>
		</g>
		<rect id="headerbar_1_" y="25" opacity="0.05" enable-background="new    " width="98" height="17"/>
		<g>
			<path fill="#444444" d="M119.69,37v-6.425h0.747v5.748h2.834V37H119.69z"/>
			<path fill="#444444" d="M129.938,33.779c0,1.028-0.26,1.837-0.78,2.426s-1.243,0.883-2.168,0.883
				c-0.946,0-1.676-0.289-2.191-0.868c-0.514-0.578-0.771-1.395-0.771-2.45c0-1.046,0.258-1.857,0.773-2.432
				c0.516-0.576,1.248-0.864,2.197-0.864c0.923,0,1.644,0.293,2.162,0.879S129.938,32.748,129.938,33.779z M124.819,33.779
				c0,0.87,0.185,1.53,0.556,1.98c0.37,0.45,0.909,0.674,1.615,0.674c0.712,0,1.25-0.224,1.613-0.672
				c0.363-0.448,0.545-1.109,0.545-1.982c0-0.864-0.181-1.52-0.543-1.966s-0.897-0.67-1.606-0.67c-0.712,0-1.253,0.225-1.624,0.674
				C125.004,32.267,124.819,32.92,124.819,33.779z"/>
			<path fill="#444444" d="M134.197,33.634h2.184v3.125c-0.34,0.108-0.686,0.19-1.037,0.246c-0.351,0.056-0.759,0.083-1.222,0.083
				c-0.973,0-1.73-0.289-2.272-0.868c-0.542-0.578-0.813-1.389-0.813-2.432c0-0.668,0.134-1.253,0.402-1.755
				c0.269-0.502,0.654-0.886,1.158-1.151c0.504-0.265,1.094-0.398,1.771-0.398c0.686,0,1.324,0.126,1.916,0.378l-0.29,0.659
				c-0.58-0.246-1.138-0.369-1.674-0.369c-0.782,0-1.393,0.233-1.833,0.699c-0.44,0.466-0.659,1.112-0.659,1.938
				c0,0.867,0.211,1.525,0.635,1.973c0.423,0.448,1.045,0.672,1.865,0.672c0.445,0,0.88-0.051,1.305-0.154v-1.979h-1.437
				L134.197,33.634L134.197,33.634z"/>
			<path fill="#444444" d="M143.5,33.779c0,1.028-0.26,1.837-0.78,2.426s-1.243,0.883-2.168,0.883c-0.946,0-1.676-0.289-2.191-0.868
				c-0.514-0.578-0.771-1.395-0.771-2.45c0-1.046,0.258-1.857,0.773-2.432c0.516-0.576,1.248-0.864,2.197-0.864
				c0.923,0,1.644,0.293,2.162,0.879S143.5,32.748,143.5,33.779z M138.38,33.779c0,0.87,0.185,1.53,0.556,1.98
				c0.37,0.45,0.909,0.674,1.615,0.674c0.712,0,1.25-0.224,1.613-0.672c0.363-0.448,0.545-1.109,0.545-1.982
				c0-0.864-0.181-1.52-0.543-1.966s-0.897-0.67-1.606-0.67c-0.712,0-1.253,0.225-1.624,0.674
				C138.565,32.267,138.38,32.92,138.38,33.779z"/>
		</g>
		<g>
			<path fill="#444444" d="M93.343,59l-2.18-5.695h-0.035c0.041,0.451,0.062,0.987,0.062,1.608V59H90.5v-6.425h1.125l2.035,5.3
				h0.035l2.052-5.3h1.116V59h-0.747v-4.14c0-0.475,0.021-0.99,0.062-1.547h-0.035L93.945,59H93.343z"/>
			<path fill="#444444" d="M102.207,59h-3.582v-6.425h3.582v0.664h-2.834v2.07h2.663v0.659h-2.663v2.364h2.834V59z"/>
			<path fill="#444444" d="M108.649,59h-0.853l-3.511-5.392h-0.035c0.047,0.633,0.07,1.213,0.07,1.74V59h-0.69v-6.425h0.844
				l3.502,5.37h0.035c-0.006-0.079-0.019-0.333-0.04-0.763c-0.021-0.429-0.028-0.736-0.022-0.92v-3.687h0.699L108.649,59L108.649,59
				z"/>
			<path fill="#444444" d="M115.268,52.575v4.157c0,0.732-0.221,1.308-0.664,1.727s-1.05,0.628-1.824,0.628
				c-0.774,0-1.372-0.211-1.795-0.633c-0.423-0.422-0.635-1.002-0.635-1.74v-4.14h0.747v4.192c0,0.536,0.146,0.948,0.439,1.235
				s0.724,0.431,1.292,0.431c0.542,0,0.959-0.144,1.252-0.433c0.293-0.288,0.439-0.702,0.439-1.241v-4.184L115.268,52.575
				L115.268,52.575z"/>
		</g>
		<g>
			<path fill="#444444" d="M222.366,57.291c0,0.565-0.205,1.006-0.615,1.323c-0.41,0.317-0.967,0.475-1.67,0.475
				c-0.762,0-1.348-0.098-1.758-0.294v-0.721c0.264,0.111,0.551,0.199,0.861,0.264s0.618,0.097,0.923,0.097
				c0.498,0,0.873-0.094,1.125-0.284c0.252-0.188,0.378-0.452,0.378-0.789c0-0.223-0.045-0.405-0.134-0.547
				c-0.09-0.142-0.239-0.273-0.448-0.393c-0.21-0.12-0.528-0.256-0.956-0.409c-0.598-0.214-1.025-0.467-1.281-0.76
				s-0.384-0.675-0.384-1.147c0-0.495,0.186-0.889,0.558-1.182s0.864-0.439,1.477-0.439c0.639,0,1.226,0.117,1.762,0.352
				l-0.233,0.65c-0.53-0.223-1.046-0.334-1.547-0.334c-0.396,0-0.705,0.085-0.927,0.255c-0.222,0.17-0.334,0.406-0.334,0.708
				c0,0.223,0.041,0.405,0.123,0.547c0.082,0.143,0.22,0.272,0.416,0.392c0.194,0.118,0.493,0.25,0.894,0.393
				c0.674,0.24,1.137,0.498,1.391,0.773C222.239,56.494,222.366,56.851,222.366,57.291z"/>
			<path fill="#444444" d="M227.262,59h-3.582v-6.425h3.582v0.664h-2.834v2.07h2.663v0.659h-2.663v2.364h2.834V59z"/>
			<path fill="#444444" d="M232.724,59l-0.8-2.043h-2.575L228.558,59h-0.756l2.54-6.451h0.628L233.498,59H232.724z M231.691,56.284
				l-0.747-1.991c-0.097-0.252-0.196-0.561-0.299-0.927c-0.064,0.281-0.157,0.59-0.277,0.927l-0.756,1.991H231.691z"/>
			<path fill="#444444" d="M235.128,56.328V59h-0.747v-6.425h1.762c0.788,0,1.37,0.151,1.747,0.453
				c0.376,0.302,0.564,0.756,0.564,1.362c0,0.85-0.431,1.424-1.292,1.723L238.907,59h-0.883l-1.556-2.672H235.128z M235.128,55.687
				h1.024c0.527,0,0.914-0.104,1.16-0.314c0.246-0.209,0.369-0.523,0.369-0.942c0-0.425-0.125-0.731-0.376-0.918
				c-0.25-0.188-0.652-0.281-1.206-0.281h-0.971V55.687L235.128,55.687z"/>
			<path fill="#444444" d="M242.695,53.151c-0.706,0-1.264,0.235-1.672,0.706c-0.408,0.47-0.613,1.114-0.613,1.931
				c0,0.841,0.197,1.491,0.591,1.949c0.394,0.459,0.956,0.688,1.685,0.688c0.448,0,0.959-0.081,1.535-0.242v0.655
				c-0.445,0.167-0.996,0.25-1.648,0.25c-0.946,0-1.676-0.287-2.191-0.861c-0.514-0.574-0.771-1.39-0.771-2.448
				c0-0.662,0.124-1.242,0.372-1.74c0.247-0.498,0.604-0.882,1.073-1.151c0.467-0.27,1.016-0.404,1.649-0.404
				c0.674,0,1.263,0.123,1.767,0.369l-0.316,0.642C243.668,53.265,243.182,53.151,242.695,53.151z"/>
			<path fill="#444444" d="M250.5,59h-0.747v-3.023h-3.384V59h-0.747v-6.425h0.747v2.733h3.384v-2.733h0.747V59z"/>
		</g>
		<g>
			<path fill="#444444" d="M122.363,83h-0.747v-5.761h-2.035v-0.664h4.816v0.664h-2.035L122.363,83L122.363,83z"/>
			<path fill="#444444" d="M130.941,79.779c0,1.028-0.26,1.837-0.78,2.426s-1.243,0.883-2.168,0.883
				c-0.946,0-1.676-0.289-2.191-0.868c-0.514-0.578-0.771-1.395-0.771-2.45c0-1.046,0.258-1.857,0.773-2.432
				c0.516-0.576,1.248-0.864,2.197-0.864c0.923,0,1.644,0.293,2.162,0.879S130.941,78.748,130.941,79.779z M125.821,79.779
				c0,0.87,0.185,1.53,0.556,1.98c0.37,0.45,0.909,0.674,1.615,0.674c0.712,0,1.25-0.224,1.613-0.672
				c0.363-0.448,0.545-1.109,0.545-1.982c0-0.864-0.181-1.52-0.543-1.966s-0.897-0.67-1.606-0.67c-0.712,0-1.253,0.225-1.624,0.674
				C126.006,78.267,125.821,78.92,125.821,79.779z"/>
			<path fill="#444444" d="M136.447,78.447c0,0.65-0.222,1.151-0.666,1.501c-0.443,0.35-1.079,0.525-1.905,0.525h-0.756V83h-0.747
				v-6.425h1.666C135.645,76.575,136.447,77.199,136.447,78.447z M133.121,79.832h0.672c0.662,0,1.141-0.107,1.437-0.321
				c0.296-0.214,0.444-0.557,0.444-1.028c0-0.425-0.139-0.741-0.417-0.949c-0.278-0.208-0.712-0.312-1.301-0.312h-0.835V79.832
				L133.121,79.832z"/>
			<path fill="#444444" d="M137.278,80.921v-0.668h2.158v0.668H137.278z"/>
			<path fill="#444444" d="M144.727,83l-0.8-2.043h-2.575L140.561,83h-0.756l2.54-6.451h0.628L145.5,83H144.727z M143.694,80.284
				l-0.747-1.991c-0.097-0.252-0.196-0.561-0.299-0.927c-0.064,0.281-0.157,0.59-0.277,0.927l-0.756,1.991H143.694z"/>
		</g>
		<g>
			<path fill="#444444" d="M122.294,111h-0.747v-5.761h-2.035v-0.664h4.816v0.664h-2.035L122.294,111L122.294,111z"/>
			<path fill="#444444" d="M130.873,107.779c0,1.028-0.26,1.837-0.78,2.426c-0.52,0.589-1.243,0.883-2.168,0.883
				c-0.946,0-1.676-0.289-2.191-0.868c-0.514-0.578-0.771-1.395-0.771-2.45c0-1.046,0.258-1.857,0.773-2.432
				c0.516-0.576,1.248-0.864,2.197-0.864c0.923,0,1.644,0.293,2.162,0.879C130.613,105.939,130.873,106.748,130.873,107.779z
				 M125.753,107.779c0,0.87,0.185,1.53,0.556,1.98c0.37,0.45,0.909,0.674,1.615,0.674c0.712,0,1.25-0.224,1.613-0.672
				c0.363-0.448,0.545-1.109,0.545-1.982c0-0.864-0.181-1.52-0.543-1.966c-0.362-0.446-0.897-0.67-1.606-0.67
				c-0.712,0-1.253,0.225-1.624,0.674C125.938,106.267,125.753,106.92,125.753,107.779z"/>
			<path fill="#444444" d="M136.379,106.447c0,0.65-0.222,1.151-0.666,1.501c-0.443,0.35-1.079,0.525-1.905,0.525h-0.756V111h-0.747
				v-6.425h1.666C135.576,104.575,136.379,105.199,136.379,106.447z M133.052,107.832h0.672c0.662,0,1.141-0.107,1.437-0.321
				c0.296-0.214,0.444-0.557,0.444-1.028c0-0.425-0.139-0.741-0.417-0.949s-0.712-0.312-1.301-0.312h-0.835V107.832L133.052,107.832
				z"/>
			<path fill="#444444" d="M137.209,108.921v-0.668h2.158v0.668H137.209z"/>
			<path fill="#444444" d="M140.62,104.575h1.815c0.853,0,1.469,0.127,1.85,0.382c0.381,0.255,0.571,0.658,0.571,1.208
				c0,0.381-0.106,0.695-0.319,0.942c-0.212,0.248-0.522,0.408-0.929,0.481v0.044c0.976,0.167,1.463,0.68,1.463,1.538
				c0,0.574-0.194,1.022-0.582,1.345c-0.389,0.322-0.931,0.483-1.628,0.483h-2.241V104.575z M141.367,107.326h1.23
				c0.527,0,0.907-0.083,1.138-0.248s0.347-0.445,0.347-0.837c0-0.36-0.129-0.62-0.387-0.78c-0.258-0.16-0.668-0.24-1.23-0.24
				h-1.099L141.367,107.326L141.367,107.326z M141.367,107.959v2.404h1.34c0.519,0,0.909-0.1,1.171-0.301
				c0.262-0.2,0.394-0.515,0.394-0.942c0-0.398-0.134-0.691-0.402-0.879c-0.268-0.188-0.676-0.281-1.224-0.281L141.367,107.959
				L141.367,107.959z"/>
		</g>
		<g>
			<path fill="#444444" d="M114.585,166.562c-0.706,0-1.263,0.231-1.672,0.707c-0.408,0.469-0.613,1.109-0.613,1.931
				c0,0.841,0.197,1.491,0.591,1.948c0.394,0.459,0.956,0.688,1.685,0.688c0.448,0,0.959-0.081,1.534-0.24v0.653
				c-0.445,0.167-0.995,0.25-1.648,0.25c-0.946,0-1.676-0.287-2.191-0.86c-0.514-0.574-0.771-1.391-0.771-2.447
				c0-0.662,0.124-1.239,0.372-1.737c0.247-0.498,0.604-0.886,1.072-1.15c0.467-0.271,1.017-0.401,1.65-0.401
				c0.674,0,1.263,0.123,1.767,0.369l-0.316,0.643C115.558,166.678,115.071,166.562,114.585,166.562z"/>
			<path fill="#444444" d="M123.088,169.191c0,1.023-0.26,1.836-0.78,2.426c-0.52,0.589-1.243,0.883-2.168,0.883
				c-0.946,0-1.676-0.289-2.191-0.867c-0.514-0.578-0.771-1.396-0.771-2.451c0-1.045,0.258-1.854,0.773-2.432
				c0.516-0.576,1.248-0.863,2.197-0.863c0.923,0,1.644,0.293,2.162,0.879S123.088,168.16,123.088,169.191z M117.969,169.191
				c0,0.869,0.185,1.528,0.556,1.979c0.37,0.45,0.909,0.676,1.615,0.676c0.712,0,1.25-0.226,1.613-0.674
				c0.363-0.447,0.545-1.107,0.545-1.98c0-0.861-0.181-1.521-0.543-1.967c-0.362-0.444-0.897-0.67-1.606-0.67
				c-0.712,0-1.253,0.228-1.624,0.674C118.154,167.68,117.969,168.332,117.969,169.191z"/>
			<path fill="#444444" d="M129.54,172.412h-0.853l-3.511-5.393h-0.035c0.047,0.633,0.07,1.213,0.07,1.736v3.652h-0.69v-6.428h0.844
				l3.502,5.369h0.035c-0.006-0.078-0.019-0.334-0.04-0.764c-0.021-0.429-0.028-0.736-0.022-0.92v-3.688h0.699L129.54,172.412
				L129.54,172.412z"/>
			<path fill="#444444" d="M133.284,172.412h-0.747v-5.762h-2.035v-0.664h4.816v0.664h-2.035L133.284,172.412L133.284,172.412z"/>
			<path fill="#444444" d="M139.867,172.412h-3.582v-6.426h3.582v0.664h-2.834v2.07h2.663v0.655h-2.663v2.364h2.834V172.412z"/>
			<path fill="#444444" d="M146.309,172.412h-0.853l-3.511-5.393h-0.035c0.047,0.633,0.07,1.213,0.07,1.736v3.652h-0.69v-6.428
				h0.844l3.502,5.369h0.035c-0.006-0.078-0.019-0.334-0.04-0.764c-0.021-0.429-0.028-0.736-0.022-0.92v-3.688h0.699
				L146.309,172.412L146.309,172.412z"/>
			<path fill="#444444" d="M150.053,172.412h-0.747v-5.762h-2.035v-0.664h4.817v0.664h-2.035V172.412z"/>
		</g>
		<g>
			<path fill="#444444" d="M107.791,255.575h1.815c0.853,0,1.469,0.128,1.85,0.382c0.381,0.256,0.571,0.658,0.571,1.209
				c0,0.381-0.106,0.695-0.319,0.941c-0.212,0.248-0.522,0.408-0.929,0.479v0.044c0.976,0.167,1.463,0.683,1.463,1.538
				c0,0.574-0.194,1.021-0.582,1.348c-0.389,0.319-0.931,0.48-1.628,0.48h-2.241V255.575z M108.538,258.326h1.23
				c0.527,0,0.907-0.082,1.138-0.248c0.231-0.166,0.347-0.445,0.347-0.838c0-0.359-0.129-0.619-0.387-0.779
				c-0.258-0.16-0.668-0.24-1.23-0.24h-1.099L108.538,258.326L108.538,258.326z M108.538,258.959v2.404h1.34
				c0.519,0,0.909-0.103,1.171-0.303c0.262-0.199,0.394-0.519,0.394-0.941c0-0.398-0.134-0.691-0.402-0.879
				c-0.268-0.188-0.676-0.281-1.224-0.281H108.538L108.538,258.959z"/>
			<path fill="#444444" d="M119.199,258.779c0,1.027-0.26,1.836-0.78,2.426c-0.52,0.588-1.243,0.883-2.168,0.883
				c-0.946,0-1.676-0.289-2.191-0.868c-0.514-0.577-0.771-1.396-0.771-2.45c0-1.045,0.258-1.854,0.773-2.432
				c0.516-0.576,1.248-0.863,2.197-0.863c0.923,0,1.644,0.293,2.162,0.879S119.199,257.748,119.199,258.779z M114.079,258.779
				c0,0.869,0.185,1.529,0.556,1.979c0.37,0.45,0.909,0.676,1.615,0.676c0.712,0,1.25-0.226,1.613-0.674
				c0.363-0.447,0.545-1.107,0.545-1.98c0-0.861-0.181-1.521-0.543-1.967c-0.362-0.443-0.897-0.67-1.606-0.67
				c-0.712,0-1.253,0.229-1.624,0.674C114.264,257.268,114.079,257.92,114.079,258.779z"/>
			<path fill="#444444" d="M122.609,262h-0.747v-5.762h-2.035v-0.663h4.816v0.663h-2.035L122.609,262L122.609,262z"/>
			<path fill="#444444" d="M127.588,262h-0.747v-5.762h-2.035v-0.663h4.816v0.663h-2.035L127.588,262L127.588,262z"/>
			<path fill="#444444" d="M136.166,258.779c0,1.027-0.26,1.836-0.78,2.426c-0.52,0.588-1.243,0.883-2.168,0.883
				c-0.946,0-1.676-0.289-2.191-0.868c-0.514-0.577-0.771-1.396-0.771-2.45c0-1.045,0.258-1.854,0.773-2.432
				c0.516-0.576,1.248-0.863,2.197-0.863c0.923,0,1.644,0.293,2.162,0.879S136.166,257.748,136.166,258.779z M131.046,258.779
				c0,0.869,0.185,1.529,0.556,1.979c0.37,0.45,0.909,0.676,1.615,0.676c0.712,0,1.25-0.226,1.613-0.674
				c0.363-0.447,0.545-1.107,0.545-1.98c0-0.861-0.181-1.521-0.543-1.967c-0.362-0.443-0.897-0.67-1.606-0.67
				c-0.712,0-1.253,0.229-1.624,0.674C131.231,257.268,131.046,257.92,131.046,258.779z"/>
			<path fill="#444444" d="M140.442,262l-2.18-5.695h-0.035c0.041,0.451,0.062,0.987,0.062,1.608V262h-0.69v-6.425h1.125l2.035,5.3
				h0.035l2.052-5.3h1.116V262h-0.747v-4.141c0-0.479,0.021-0.989,0.062-1.547h-0.035L141.044,262H140.442z"/>
			<path fill="#444444" d="M145.21,259.922v-0.668h2.158v0.668H145.21z"/>
			<path fill="#444444" d="M148.62,255.575h1.815c0.853,0,1.469,0.128,1.85,0.382c0.381,0.256,0.571,0.658,0.571,1.209
				c0,0.381-0.106,0.695-0.319,0.941c-0.212,0.248-0.522,0.408-0.929,0.479v0.044c0.976,0.167,1.463,0.683,1.463,1.538
				c0,0.574-0.194,1.021-0.582,1.348c-0.389,0.319-0.931,0.48-1.628,0.48h-2.241V255.575z M149.367,258.326h1.23
				c0.527,0,0.907-0.082,1.138-0.248s0.347-0.445,0.347-0.838c0-0.359-0.129-0.619-0.387-0.779c-0.258-0.16-0.668-0.24-1.23-0.24
				h-1.099L149.367,258.326L149.367,258.326z M149.367,258.959v2.404h1.34c0.519,0,0.909-0.103,1.171-0.303
				c0.262-0.199,0.394-0.519,0.394-0.941c0-0.398-0.134-0.691-0.402-0.879c-0.268-0.188-0.676-0.281-1.224-0.281H149.367
				L149.367,258.959z"/>
		</g>
		<g id="bottom-b_1_" opacity="0.1">
			<rect y="274" fill="#777777" width="260" height="22"/>
		</g>
		<g>
			<path fill="#444444" d="M107.858,228.575h1.815c0.853,0,1.469,0.128,1.85,0.382c0.381,0.256,0.571,0.658,0.571,1.209
				c0,0.381-0.106,0.695-0.319,0.941c-0.212,0.248-0.522,0.408-0.929,0.479v0.044c0.976,0.167,1.463,0.683,1.463,1.538
				c0,0.574-0.194,1.021-0.582,1.348c-0.389,0.319-0.931,0.48-1.628,0.48h-2.241V228.575z M108.605,231.326h1.23
				c0.527,0,0.907-0.082,1.138-0.248s0.347-0.445,0.347-0.838c0-0.359-0.129-0.619-0.387-0.779c-0.258-0.16-0.668-0.24-1.23-0.24
				h-1.099L108.605,231.326L108.605,231.326z M108.605,231.959v2.404h1.34c0.519,0,0.909-0.104,1.171-0.303
				c0.262-0.199,0.394-0.519,0.394-0.941c0-0.398-0.134-0.691-0.402-0.879c-0.268-0.188-0.676-0.281-1.224-0.281H108.605
				L108.605,231.959z"/>
			<path fill="#444444" d="M119.267,231.779c0,1.027-0.26,1.836-0.78,2.426c-0.52,0.588-1.243,0.883-2.168,0.883
				c-0.946,0-1.676-0.289-2.191-0.867c-0.514-0.578-0.771-1.396-0.771-2.451c0-1.045,0.258-1.854,0.773-2.432
				c0.516-0.576,1.248-0.863,2.197-0.863c0.923,0,1.644,0.293,2.162,0.879C119.007,229.939,119.267,230.748,119.267,231.779z
				 M114.147,231.779c0,0.869,0.185,1.529,0.556,1.979c0.37,0.45,0.909,0.676,1.615,0.676c0.712,0,1.25-0.226,1.613-0.674
				c0.363-0.447,0.545-1.107,0.545-1.979c0-0.865-0.181-1.521-0.543-1.969c-0.362-0.445-0.897-0.67-1.606-0.67
				c-0.712,0-1.253,0.227-1.624,0.674C114.332,230.268,114.147,230.92,114.147,231.779z"/>
			<path fill="#444444" d="M122.677,235h-0.747v-5.762h-2.035v-0.663h4.816v0.663h-2.035L122.677,235L122.677,235z"/>
			<path fill="#444444" d="M127.656,235h-0.747v-5.762h-2.035v-0.663h4.816v0.663h-2.035L127.656,235L127.656,235z"/>
			<path fill="#444444" d="M136.234,231.779c0,1.027-0.26,1.836-0.78,2.426c-0.52,0.588-1.243,0.883-2.168,0.883
				c-0.946,0-1.676-0.289-2.191-0.867c-0.514-0.578-0.771-1.396-0.771-2.451c0-1.045,0.258-1.854,0.773-2.432
				c0.516-0.576,1.248-0.863,2.197-0.863c0.923,0,1.644,0.293,2.162,0.879S136.234,230.748,136.234,231.779z M131.114,231.779
				c0,0.869,0.185,1.529,0.556,1.979c0.37,0.45,0.909,0.676,1.615,0.676c0.712,0,1.25-0.226,1.613-0.674
				c0.363-0.447,0.545-1.107,0.545-1.979c0-0.865-0.181-1.521-0.543-1.969c-0.362-0.445-0.897-0.67-1.606-0.67
				c-0.712,0-1.253,0.227-1.624,0.674C131.299,230.268,131.114,230.92,131.114,231.779z"/>
			<path fill="#444444" d="M140.51,235l-2.18-5.695h-0.035c0.041,0.451,0.062,0.987,0.062,1.608V235h-0.69v-6.425h1.125l2.035,5.3
				h0.035l2.052-5.3h1.116V235h-0.747v-4.141c0-0.479,0.021-0.989,0.062-1.547h-0.035L141.112,235H140.51z"/>
			<path fill="#444444" d="M145.278,232.922v-0.668h2.158v0.668H145.278z"/>
			<path fill="#444444" d="M152.727,235l-0.8-2.043h-2.575L148.561,235h-0.756l2.54-6.451h0.628L153.5,235H152.727z
				 M151.694,232.284l-0.747-1.991c-0.097-0.252-0.196-0.561-0.299-0.927c-0.064,0.28-0.157,0.591-0.277,0.927l-0.756,1.991H151.694
				z"/>
		</g>
		<g>
			<path fill="#444444" d="M114.763,313h-0.747v-6.425h3.582v0.663h-2.834v2.352h2.663v0.664h-2.663L114.763,313L114.763,313z"/>
			<path fill="#444444" d="M124.237,309.779c0,1.027-0.26,1.836-0.78,2.426c-0.52,0.588-1.243,0.883-2.168,0.883
				c-0.946,0-1.676-0.289-2.191-0.868c-0.514-0.577-0.771-1.396-0.771-2.45c0-1.045,0.258-1.854,0.773-2.432
				c0.516-0.576,1.248-0.863,2.197-0.863c0.923,0,1.644,0.293,2.162,0.879S124.237,308.748,124.237,309.779z M119.118,309.779
				c0,0.869,0.185,1.529,0.556,1.979c0.37,0.45,0.909,0.676,1.615,0.676c0.712,0,1.25-0.226,1.613-0.674
				c0.363-0.447,0.545-1.107,0.545-1.98c0-0.861-0.181-1.521-0.543-1.967c-0.362-0.443-0.897-0.67-1.606-0.67
				c-0.712,0-1.253,0.229-1.624,0.674C119.303,308.268,119.118,308.92,119.118,309.779z"/>
			<path fill="#444444" d="M131.247,309.779c0,1.027-0.26,1.836-0.78,2.426c-0.52,0.588-1.243,0.883-2.168,0.883
				c-0.946,0-1.676-0.289-2.191-0.868c-0.514-0.577-0.771-1.396-0.771-2.45c0-1.045,0.258-1.854,0.773-2.432
				c0.516-0.576,1.248-0.863,2.197-0.863c0.923,0,1.644,0.293,2.162,0.879C130.987,307.939,131.247,308.748,131.247,309.779z
				 M126.127,309.779c0,0.869,0.185,1.529,0.556,1.979c0.37,0.45,0.909,0.676,1.615,0.676c0.712,0,1.25-0.226,1.613-0.674
				c0.363-0.447,0.545-1.107,0.545-1.98c0-0.861-0.181-1.521-0.543-1.967c-0.362-0.443-0.897-0.67-1.606-0.67
				c-0.712,0-1.253,0.229-1.624,0.674C126.312,308.268,126.127,308.92,126.127,309.779z"/>
			<path fill="#444444" d="M134.657,313h-0.747v-5.762h-2.035v-0.663h4.816v0.663h-2.035V313H134.657z"/>
			<path fill="#444444" d="M141.24,313h-3.582v-6.425h3.582v0.663h-2.834v2.07h2.663v0.654h-2.663v2.364h2.834V313z"/>
			<path fill="#444444" d="M143.411,310.328V313h-0.747v-6.425h1.762c0.788,0,1.37,0.151,1.747,0.452
				c0.376,0.303,0.564,0.756,0.564,1.363c0,0.85-0.431,1.424-1.292,1.723L147.19,313h-0.883l-1.556-2.672H143.411z M143.411,309.688
				h1.024c0.527,0,0.914-0.104,1.16-0.312c0.246-0.209,0.369-0.521,0.369-0.938c0-0.429-0.125-0.729-0.376-0.918
				c-0.25-0.188-0.652-0.281-1.206-0.281h-0.971V309.688L143.411,309.688z"/>
		</g>
		<g>
			<path fill="#444444" d="M14.703,187.457c0.565,0,1.006,0.205,1.323,0.615s0.474,0.967,0.474,1.67
				c0,0.762-0.098,1.348-0.294,1.758h-0.721c0.111-0.264,0.199-0.551,0.264-0.861c0.065-0.31,0.097-0.617,0.097-0.923
				c0-0.498-0.094-0.873-0.284-1.125c-0.188-0.252-0.452-0.378-0.789-0.378c-0.223,0-0.405,0.045-0.547,0.135
				s-0.273,0.238-0.393,0.447c-0.12,0.21-0.256,0.528-0.409,0.956c-0.214,0.599-0.467,1.024-0.76,1.281
				c-0.293,0.256-0.675,0.384-1.147,0.384c-0.495,0-0.889-0.186-1.182-0.559c-0.293-0.371-0.439-0.863-0.439-1.479
				c0-0.64,0.117-1.229,0.352-1.762l0.65,0.229c-0.223,0.53-0.334,1.048-0.334,1.548c0,0.396,0.085,0.705,0.255,0.931
				c0.17,0.222,0.406,0.334,0.708,0.334c0.223,0,0.405-0.041,0.547-0.123c0.143-0.082,0.272-0.224,0.392-0.416
				c0.118-0.194,0.25-0.493,0.393-0.896c0.24-0.676,0.498-1.139,0.773-1.393C13.906,187.584,14.263,187.457,14.703,187.457z"/>
			<path fill="#444444" d="M16.412,186.143H9.987v-0.746h6.425V186.143z"/>
			<path fill="#444444" d="M13.138,178.505c1.061,0,1.872,0.288,2.432,0.863c0.562,0.575,0.842,1.403,0.842,2.485v1.775H9.987
				v-1.969c0-0.999,0.277-1.771,0.831-2.329C11.372,178.781,12.145,178.505,13.138,178.505z M13.165,179.296
				c-0.838,0-1.469,0.21-1.894,0.631s-0.637,1.046-0.637,1.874v1.086h5.133v-0.91c0-0.892-0.219-1.561-0.657-2.009
				S14.023,179.296,13.165,179.296z"/>
			<path fill="#444444" d="M16.412,173.491v3.582H9.987v-3.582h0.664v2.834h2.07v-2.663h0.659v2.663h2.364v-2.834H16.412z"/>
			<path fill="#444444" d="M9.987,172.066v-1.814c0-0.854,0.127-1.469,0.382-1.85c0.255-0.381,0.658-0.571,1.208-0.571
				c0.381,0,0.695,0.106,0.942,0.319c0.248,0.211,0.408,0.521,0.481,0.929h0.044c0.167-0.976,0.68-1.463,1.538-1.463
				c0.574,0,1.022,0.194,1.345,0.582c0.322,0.389,0.483,0.931,0.483,1.628v2.24H9.987L9.987,172.066z M12.738,171.32v-1.23
				c0-0.527-0.083-0.906-0.248-1.138c-0.165-0.231-0.445-0.347-0.837-0.347c-0.36,0-0.62,0.129-0.78,0.387s-0.24,0.668-0.24,1.23
				v1.098H12.738L12.738,171.32z M13.371,171.32h2.404v-1.34c0-0.521-0.1-0.91-0.301-1.172c-0.2-0.266-0.515-0.396-0.942-0.396
				c-0.398,0-0.691,0.134-0.879,0.398c-0.188,0.271-0.281,0.68-0.281,1.228L13.371,171.32L13.371,171.32z"/>
			<path fill="#444444" d="M16.412,162.197l-2.043,0.8v2.575l2.043,0.791v0.756l-6.451-2.54v-0.628l6.451-2.527V162.197z
				 M13.696,163.23l-1.991,0.746c-0.252,0.098-0.561,0.192-0.927,0.299c0.281,0.062,0.59,0.158,0.927,0.273l1.991,0.76V163.23z"/>
			<path fill="#444444" d="M13.74,159.793h2.672v0.747H9.987v-1.763c0-0.787,0.151-1.369,0.453-1.746
				c0.302-0.377,0.756-0.564,1.362-0.564c0.85,0,1.424,0.432,1.723,1.292l2.887-1.745v0.883l-2.672,1.561V159.793z M13.099,159.793
				v-1.023c0-0.523-0.104-0.914-0.314-1.16c-0.209-0.242-0.523-0.365-0.942-0.365c-0.425,0-0.731,0.125-0.918,0.376
				c-0.188,0.25-0.281,0.647-0.281,1.206v0.971L13.099,159.793L13.099,159.793z"/>
			<path fill="#444444" d="M14.333,155.491h-0.668v-2.158h0.668V155.491z"/>
			<path fill="#444444" d="M16.412,148.042l-2.043,0.8v2.575l2.043,0.791v0.756l-6.451-2.54v-0.628l6.451-2.526V148.042z
				 M13.696,149.075l-1.991,0.747c-0.252,0.097-0.561,0.195-0.927,0.299c0.281,0.064,0.59,0.156,0.927,0.277l1.991,0.756V149.075z"
				/>
		</g>
		<g>
			<path fill="#444444" d="M46.307,187.328c0.565,0,1.006,0.205,1.323,0.615s0.474,0.967,0.474,1.67
				c0,0.762-0.098,1.348-0.294,1.758h-0.721c0.111-0.264,0.199-0.551,0.264-0.861c0.065-0.31,0.097-0.617,0.097-0.923
				c0-0.498-0.094-0.873-0.284-1.125c-0.188-0.252-0.452-0.378-0.789-0.378c-0.223,0-0.405,0.045-0.547,0.134
				c-0.142,0.091-0.273,0.239-0.393,0.448c-0.12,0.21-0.256,0.527-0.409,0.956c-0.214,0.599-0.467,1.024-0.76,1.28
				c-0.293,0.257-0.675,0.385-1.147,0.385c-0.495,0-0.889-0.186-1.182-0.559c-0.293-0.371-0.439-0.863-0.439-1.479
				c0-0.642,0.117-1.229,0.352-1.765l0.65,0.231c-0.223,0.53-0.334,1.047-0.334,1.547c0,0.396,0.085,0.705,0.255,0.929
				c0.17,0.225,0.406,0.334,0.708,0.334c0.223,0,0.405-0.041,0.547-0.121c0.143-0.082,0.272-0.223,0.392-0.416
				c0.118-0.193,0.25-0.492,0.393-0.896c0.24-0.674,0.498-1.137,0.773-1.391C45.51,187.455,45.867,187.328,46.307,187.328z"/>
			<path fill="#444444" d="M48.016,186.014h-6.425v-0.746h6.425V186.014z"/>
			<path fill="#444444" d="M44.742,178.376c1.061,0,1.872,0.288,2.432,0.863c0.562,0.575,0.842,1.403,0.842,2.485v1.775h-6.425
				v-1.969c0-0.999,0.277-1.775,0.831-2.329C42.976,178.652,43.749,178.376,44.742,178.376z M44.769,179.167
				c-0.838,0-1.469,0.21-1.894,0.631s-0.637,1.045-0.637,1.874v1.085h5.133v-0.909c0-0.892-0.219-1.561-0.657-2.009
				S45.627,179.167,44.769,179.167z"/>
			<path fill="#444444" d="M48.016,173.361v3.582h-6.425v-3.582h0.664v2.834h2.07v-2.662h0.659v2.662h2.364v-2.834H48.016z"/>
			<path fill="#444444" d="M41.591,171.938v-1.812c0-0.854,0.127-1.469,0.382-1.853c0.255-0.381,0.658-0.568,1.208-0.568
				c0.381,0,0.695,0.104,0.942,0.316c0.248,0.211,0.408,0.521,0.481,0.932h0.044c0.167-0.979,0.68-1.467,1.538-1.467
				c0.574,0,1.022,0.195,1.345,0.582c0.322,0.393,0.483,0.935,0.483,1.632v2.237H41.591L41.591,171.938z M44.342,171.191v-1.23
				c0-0.527-0.083-0.906-0.248-1.138c-0.165-0.231-0.445-0.347-0.837-0.347c-0.36,0-0.62,0.129-0.78,0.387s-0.24,0.668-0.24,1.229
				v1.1H44.342L44.342,171.191z M44.975,171.191h2.404v-1.34c0-0.521-0.1-0.91-0.301-1.172c-0.2-0.266-0.515-0.396-0.942-0.396
				c-0.398,0-0.691,0.134-0.879,0.398c-0.188,0.271-0.281,0.676-0.281,1.228L44.975,171.191L44.975,171.191z"/>
			<path fill="#444444" d="M48.016,162.068l-2.043,0.8v2.575l2.043,0.791v0.756l-6.451-2.54v-0.628l6.451-2.527V162.068z
				 M45.3,163.102l-1.991,0.746c-0.252,0.099-0.561,0.196-0.927,0.299c0.281,0.064,0.59,0.158,0.927,0.277l1.991,0.756V163.102z"/>
			<path fill="#444444" d="M45.344,159.664h2.672v0.747h-6.425v-1.763c0-0.787,0.151-1.369,0.453-1.746
				c0.302-0.377,0.756-0.564,1.362-0.564c0.85,0,1.424,0.432,1.723,1.292l2.887-1.745v0.883l-2.672,1.561V159.664z M44.703,159.664
				v-1.023c0-0.523-0.104-0.914-0.314-1.16c-0.209-0.246-0.523-0.369-0.942-0.369c-0.425,0-0.731,0.125-0.918,0.375
				c-0.188,0.25-0.281,0.652-0.281,1.207v0.975L44.703,159.664L44.703,159.664z"/>
			<path fill="#444444" d="M45.937,155.361h-0.668v-2.157h0.668V155.361z"/>
			<path fill="#444444" d="M41.591,151.952v-1.815c0-0.853,0.127-1.469,0.382-1.85c0.255-0.381,0.658-0.571,1.208-0.571
				c0.381,0,0.695,0.106,0.942,0.319c0.248,0.212,0.408,0.521,0.481,0.929h0.044c0.167-0.976,0.68-1.463,1.538-1.463
				c0.574,0,1.022,0.194,1.345,0.582c0.322,0.39,0.483,0.931,0.483,1.628v2.241H41.591z M44.342,151.205v-1.23
				c0-0.525-0.083-0.906-0.248-1.138c-0.165-0.231-0.445-0.347-0.837-0.347c-0.36,0-0.62,0.129-0.78,0.387s-0.24,0.668-0.24,1.23
				v1.099L44.342,151.205L44.342,151.205z M44.975,151.205h2.404v-1.34c0-0.521-0.1-0.909-0.301-1.172
				c-0.2-0.262-0.515-0.394-0.942-0.394c-0.398,0-0.691,0.134-0.879,0.402c-0.188,0.268-0.281,0.676-0.281,1.224L44.975,151.205
				L44.975,151.205z"/>
		</g>
		<g>
			<path fill="#444444" d="M218.308,188.457c0.565,0,1.006,0.205,1.323,0.615c0.317,0.41,0.475,0.967,0.475,1.67
				c0,0.762-0.098,1.348-0.294,1.758h-0.721c0.111-0.264,0.199-0.551,0.264-0.861c0.065-0.31,0.097-0.617,0.097-0.923
				c0-0.498-0.094-0.873-0.284-1.125c-0.188-0.252-0.452-0.378-0.789-0.378c-0.223,0-0.405,0.045-0.547,0.135
				s-0.273,0.238-0.393,0.447c-0.12,0.21-0.256,0.528-0.409,0.956c-0.214,0.599-0.467,1.024-0.76,1.281
				c-0.293,0.256-0.675,0.384-1.147,0.384c-0.495,0-0.889-0.186-1.182-0.559c-0.293-0.371-0.441-0.863-0.441-1.479
				c0-0.639,0.117-1.229,0.352-1.762l0.65,0.229c-0.223,0.529-0.334,1.045-0.334,1.547c0,0.396,0.085,0.705,0.255,0.931
				c0.17,0.222,0.406,0.334,0.708,0.334c0.223,0,0.405-0.041,0.547-0.123c0.143-0.082,0.272-0.224,0.392-0.416
				c0.118-0.194,0.25-0.493,0.393-0.896c0.24-0.675,0.498-1.139,0.773-1.393C217.511,188.584,217.868,188.457,218.308,188.457z"/>
			<path fill="#444444" d="M220.017,187.143h-6.425v-0.746h6.425V187.143z"/>
			<path fill="#444444" d="M216.743,179.505c1.061,0,1.872,0.288,2.432,0.863c0.562,0.575,0.842,1.403,0.842,2.485v1.775h-6.425
				v-1.969c0-0.999,0.277-1.771,0.831-2.329C214.977,179.781,215.75,179.505,216.743,179.505z M216.77,180.296
				c-0.838,0-1.469,0.21-1.894,0.631s-0.637,1.046-0.637,1.874v1.086h5.133v-0.91c0-0.892-0.219-1.561-0.657-2.009
				S217.628,180.296,216.77,180.296z"/>
			<path fill="#444444" d="M220.017,174.491v3.582h-6.425v-3.582h0.664v2.834h2.07v-2.663h0.659v2.663h2.364v-2.834H220.017z"/>
			<path fill="#444444" d="M213.592,173.066v-1.814c0-0.854,0.127-1.469,0.382-1.85c0.255-0.381,0.658-0.571,1.208-0.571
				c0.381,0,0.695,0.106,0.942,0.319c0.248,0.211,0.408,0.521,0.481,0.929h0.044c0.167-0.976,0.68-1.463,1.538-1.463
				c0.574,0,1.022,0.194,1.345,0.582c0.322,0.389,0.483,0.931,0.483,1.628v2.24H213.592L213.592,173.066z M216.343,172.32v-1.23
				c0-0.527-0.083-0.906-0.248-1.138c-0.165-0.231-0.445-0.347-0.837-0.347c-0.36,0-0.62,0.129-0.78,0.387s-0.24,0.668-0.24,1.23
				v1.098H216.343L216.343,172.32z M216.976,172.32h2.404v-1.34c0-0.521-0.1-0.91-0.301-1.172c-0.2-0.266-0.515-0.396-0.942-0.396
				c-0.398,0-0.691,0.134-0.879,0.398c-0.188,0.271-0.281,0.68-0.281,1.228L216.976,172.32L216.976,172.32z"/>
			<path fill="#444444" d="M220.017,163.197l-2.043,0.8v2.575l2.043,0.791v0.756l-6.451-2.54v-0.628l6.451-2.527V163.197z
				 M217.301,164.23l-1.991,0.746c-0.252,0.098-0.561,0.192-0.927,0.299c0.281,0.062,0.59,0.158,0.927,0.273l1.991,0.76V164.23z"/>
			<path fill="#444444" d="M217.345,160.793h2.672v0.747h-6.425v-1.763c0-0.787,0.151-1.369,0.453-1.746
				c0.302-0.377,0.756-0.564,1.362-0.564c0.85,0,1.424,0.432,1.723,1.292l2.887-1.745v0.883l-2.672,1.561V160.793z M216.704,160.793
				v-1.023c0-0.523-0.104-0.914-0.314-1.16c-0.209-0.242-0.523-0.365-0.942-0.365c-0.425,0-0.731,0.125-0.918,0.376
				c-0.188,0.25-0.281,0.647-0.281,1.206v0.971L216.704,160.793L216.704,160.793z"/>
			<path fill="#444444" d="M217.938,156.491h-0.668v-2.158h0.668V156.491z"/>
			<path fill="#444444" d="M220.017,149.042l-2.043,0.8v2.575l2.043,0.791v0.756l-6.451-2.54v-0.628l6.451-2.526V149.042z
				 M217.301,150.075l-1.991,0.747c-0.252,0.097-0.561,0.195-0.927,0.299c0.281,0.064,0.59,0.156,0.927,0.277l1.991,0.756V150.075z"
				/>
		</g>
		<g>
			<path fill="#444444" d="M249.702,188.327c0.565,0,1.007,0.205,1.323,0.614c0.315,0.41,0.475,0.968,0.475,1.67
				c0,0.763-0.1,1.349-0.295,1.759h-0.721c0.111-0.265,0.199-0.552,0.264-0.861c0.064-0.309,0.098-0.616,0.098-0.923
				c0-0.498-0.096-0.873-0.285-1.125c-0.188-0.252-0.451-0.378-0.787-0.378c-0.224,0-0.405,0.045-0.549,0.135
				c-0.141,0.091-0.271,0.238-0.393,0.447c-0.12,0.21-0.256,0.528-0.408,0.956c-0.215,0.6-0.468,1.023-0.761,1.281
				c-0.293,0.256-0.675,0.384-1.147,0.384c-0.494,0-0.889-0.187-1.182-0.56c-0.293-0.371-0.439-0.863-0.439-1.479
				c0-0.643,0.117-1.229,0.352-1.764l0.65,0.232c-0.224,0.528-0.334,1.045-0.334,1.547c0,0.396,0.084,0.705,0.254,0.926
				c0.17,0.226,0.406,0.334,0.709,0.334c0.223,0,0.404-0.039,0.547-0.121c0.143-0.08,0.271-0.221,0.392-0.416
				c0.118-0.192,0.25-0.491,0.394-0.895c0.24-0.675,0.498-1.139,0.772-1.393C248.904,188.454,249.262,188.327,249.702,188.327z"/>
			<path fill="#444444" d="M251.412,187.014h-6.426v-0.746h6.426V187.014z"/>
			<path fill="#444444" d="M248.137,179.375c1.062,0,1.872,0.288,2.434,0.863c0.561,0.574,0.842,1.402,0.842,2.484v1.776h-6.426
				v-1.969c0-0.999,0.277-1.775,0.832-2.329C246.372,179.65,247.145,179.375,248.137,179.375z M248.164,180.166
				c-0.838,0-1.469,0.21-1.895,0.631c-0.424,0.421-0.637,1.046-0.637,1.874v1.085h5.133v-0.908c0-0.893-0.219-1.562-0.656-2.01
				C249.67,180.393,249.021,180.166,248.164,180.166z"/>
			<path fill="#444444" d="M251.412,174.361v3.582h-6.426v-3.582h0.664v2.834h2.07v-2.663h0.659v2.663h2.365v-2.834H251.412z"/>
			<path fill="#444444" d="M244.986,172.938v-1.812c0-0.854,0.127-1.471,0.382-1.853c0.255-0.381,0.657-0.568,1.208-0.568
				c0.381,0,0.695,0.104,0.941,0.316c0.248,0.211,0.408,0.521,0.482,0.932h0.043c0.168-0.979,0.68-1.467,1.539-1.467
				c0.574,0,1.021,0.195,1.344,0.582c0.322,0.393,0.484,0.935,0.484,1.632v2.237H244.986z M247.736,172.189v-1.229
				c0-0.526-0.082-0.905-0.248-1.138c-0.164-0.231-0.444-0.348-0.836-0.348c-0.36,0-0.62,0.129-0.78,0.387
				c-0.16,0.259-0.24,0.668-0.24,1.229v1.1H247.736L247.736,172.189z M248.371,172.189h2.402v-1.34c0-0.521-0.101-0.91-0.301-1.175
				c-0.199-0.262-0.515-0.394-0.941-0.394c-0.398,0-0.691,0.134-0.879,0.398c-0.188,0.271-0.281,0.676-0.281,1.228V172.189z"/>
			<path fill="#444444" d="M251.412,163.066l-2.044,0.801v2.574l2.044,0.791v0.756l-6.452-2.539v-0.629l6.452-2.526V163.066z
				 M248.695,164.102l-1.99,0.746c-0.252,0.099-0.561,0.195-0.928,0.299c0.281,0.063,0.591,0.158,0.928,0.276l1.99,0.757V164.102z"
				/>
			<path fill="#444444" d="M248.74,160.663h2.672v0.747h-6.426v-1.764c0-0.787,0.152-1.369,0.453-1.746
				c0.303-0.377,0.756-0.563,1.362-0.563c0.851,0,1.425,0.433,1.724,1.292l2.888-1.745v0.884l-2.672,1.56L248.74,160.663
				L248.74,160.663z M248.098,160.663v-1.022c0-0.524-0.104-0.914-0.314-1.16c-0.209-0.246-0.523-0.369-0.942-0.369
				c-0.425,0-0.731,0.125-0.918,0.375c-0.188,0.25-0.28,0.652-0.28,1.207v0.974L248.098,160.663L248.098,160.663z"/>
			<path fill="#444444" d="M249.332,156.361h-0.668v-2.158h0.668V156.361z"/>
			<path fill="#444444" d="M244.986,152.951v-1.815c0-0.853,0.127-1.469,0.382-1.85c0.255-0.381,0.657-0.571,1.208-0.571
				c0.381,0,0.695,0.106,0.941,0.319c0.248,0.212,0.408,0.521,0.482,0.929h0.043c0.168-0.976,0.68-1.463,1.539-1.463
				c0.574,0,1.021,0.194,1.344,0.582c0.322,0.39,0.484,0.932,0.484,1.628v2.241H244.986z M247.736,152.204v-1.229
				c0-0.523-0.082-0.906-0.248-1.139c-0.164-0.23-0.444-0.347-0.836-0.347c-0.36,0-0.62,0.129-0.78,0.387s-0.24,0.668-0.24,1.229
				v1.1L247.736,152.204L247.736,152.204z M248.371,152.204h2.402v-1.34c0-0.521-0.101-0.909-0.301-1.171
				c-0.199-0.263-0.515-0.395-0.941-0.395c-0.398,0-0.691,0.133-0.879,0.401c-0.188,0.268-0.281,0.676-0.281,1.224V152.204z"/>
		</g>
		<g>
			<path fill="#444444" d="M103.477,208.75l-2.18-5.695h-0.035c0.041,0.451,0.062,0.987,0.062,1.608v4.087h-0.69v-6.425h1.125
				l2.035,5.3h0.035l2.052-5.3h1.116v6.425h-0.747v-4.141c0-0.475,0.021-0.989,0.062-1.547h-0.035l-2.197,5.688H103.477z"/>
			<path fill="#444444" d="M112.797,208.75l-0.8-2.043h-2.575l-0.791,2.043h-0.756l2.54-6.451h0.628l2.527,6.451H112.797z
				 M111.765,206.034l-0.747-1.991c-0.097-0.251-0.196-0.561-0.299-0.927c-0.064,0.28-0.157,0.591-0.277,0.927l-0.756,1.991H111.765
				z"/>
			<path fill="#444444" d="M114.454,208.75v-6.425h0.747v6.425H114.454z"/>
			<path fill="#444444" d="M121.982,208.75h-0.853l-3.511-5.393h-0.035c0.047,0.633,0.07,1.213,0.07,1.74v3.651h-0.69v-6.425h0.844
				l3.502,5.369h0.035c-0.006-0.078-0.019-0.332-0.04-0.762s-0.028-0.736-0.022-0.922v-3.687h0.699L121.982,208.75L121.982,208.75z"
				/>
			<path fill="#444444" d="M123.234,206.672v-0.668h2.158v0.668H123.234z"/>
			<path fill="#444444" d="M126.645,202.325h1.815c0.853,0,1.469,0.128,1.85,0.382c0.381,0.256,0.571,0.658,0.571,1.209
				c0,0.381-0.106,0.695-0.319,0.941c-0.212,0.248-0.522,0.408-0.929,0.481v0.044c0.976,0.167,1.463,0.68,1.463,1.538
				c0,0.574-0.194,1.022-0.582,1.345c-0.389,0.322-0.931,0.483-1.628,0.483h-2.241V202.325z M127.392,205.076h1.23
				c0.527,0,0.907-0.083,1.138-0.248c0.231-0.166,0.347-0.444,0.347-0.838c0-0.359-0.129-0.62-0.387-0.779
				c-0.258-0.16-0.668-0.24-1.23-0.24h-1.099L127.392,205.076L127.392,205.076z M127.392,205.709v2.404h1.34
				c0.519,0,0.909-0.102,1.171-0.303c0.262-0.199,0.394-0.515,0.394-0.941c0-0.398-0.134-0.691-0.402-0.879
				c-0.268-0.188-0.676-0.281-1.224-0.281H127.392z"/>
			<path fill="#444444" d="M138.053,205.529c0,1.027-0.26,1.836-0.78,2.426c-0.52,0.588-1.243,0.883-2.168,0.883
				c-0.946,0-1.676-0.289-2.191-0.868c-0.514-0.577-0.771-1.396-0.771-2.45c0-1.045,0.258-1.855,0.773-2.432
				c0.516-0.576,1.248-0.863,2.197-0.863c0.923,0,1.644,0.293,2.162,0.879S138.053,204.498,138.053,205.529z M132.933,205.529
				c0,0.869,0.185,1.529,0.556,1.979c0.37,0.449,0.909,0.676,1.615,0.676c0.712,0,1.25-0.226,1.613-0.674
				c0.363-0.447,0.545-1.107,0.545-1.98c0-0.864-0.181-1.521-0.543-1.967c-0.362-0.447-0.897-0.67-1.606-0.67
				c-0.712,0-1.253,0.225-1.624,0.674C133.118,204.018,132.933,204.671,132.933,205.529z"/>
			<path fill="#444444" d="M141.463,208.75h-0.747v-5.762h-2.035v-0.663h4.816v0.663h-2.035L141.463,208.75L141.463,208.75z"/>
			<path fill="#444444" d="M146.442,208.75h-0.747v-5.762h-2.035v-0.663h4.816v0.663h-2.035L146.442,208.75L146.442,208.75z"/>
			<path fill="#444444" d="M155.02,205.529c0,1.027-0.26,1.836-0.78,2.426c-0.52,0.588-1.243,0.883-2.168,0.883
				c-0.946,0-1.676-0.289-2.191-0.868c-0.514-0.577-0.771-1.396-0.771-2.45c0-1.045,0.258-1.855,0.773-2.432
				c0.516-0.576,1.248-0.863,2.197-0.863c0.923,0,1.644,0.293,2.162,0.879S155.02,204.498,155.02,205.529z M149.9,205.529
				c0,0.869,0.185,1.529,0.556,1.979c0.37,0.449,0.909,0.676,1.615,0.676c0.712,0,1.25-0.226,1.613-0.674
				c0.363-0.447,0.545-1.107,0.545-1.98c0-0.864-0.181-1.521-0.543-1.967c-0.362-0.447-0.897-0.67-1.606-0.67
				c-0.712,0-1.253,0.225-1.624,0.674C150.085,204.018,149.9,204.671,149.9,205.529z"/>
			<path fill="#444444" d="M159.296,208.75l-2.18-5.695h-0.035c0.041,0.451,0.062,0.987,0.062,1.608v4.087h-0.69v-6.425h1.125
				l2.035,5.3h0.035l2.052-5.3h1.116v6.425h-0.747v-4.141c0-0.475,0.021-0.989,0.062-1.547h-0.035l-2.197,5.688H159.296z"/>
		</g>
		<g>
			<path fill="#444444" d="M113.477,136.75l-2.18-5.695h-0.035c0.041,0.451,0.062,0.987,0.062,1.608v4.087h-0.69v-6.425h1.125
				l2.035,5.3h0.035l2.052-5.3h1.116v6.425h-0.747v-4.14c0-0.475,0.021-0.99,0.062-1.547h-0.035l-2.197,5.687H113.477z"/>
			<path fill="#444444" d="M122.797,136.75l-0.8-2.043h-2.575l-0.791,2.043h-0.756l2.54-6.451h0.628l2.527,6.451H122.797z
				 M121.765,134.034l-0.747-1.991c-0.097-0.251-0.196-0.561-0.299-0.927c-0.064,0.281-0.157,0.591-0.277,0.927l-0.756,1.991
				H121.765z"/>
			<path fill="#444444" d="M124.454,136.75v-6.425h0.747v6.425H124.454z"/>
			<path fill="#444444" d="M131.982,136.75h-0.853l-3.511-5.393h-0.035c0.047,0.633,0.07,1.213,0.07,1.74v3.652h-0.69v-6.425h0.844
				l3.502,5.37h0.035c-0.006-0.079-0.019-0.333-0.04-0.763c-0.021-0.429-0.028-0.735-0.022-0.921v-3.687h0.699L131.982,136.75
				L131.982,136.75z"/>
			<path fill="#444444" d="M133.234,134.672v-0.668h2.158v0.668H133.234z"/>
			<path fill="#444444" d="M138.622,136.75h-0.747v-5.762h-2.035v-0.663h4.816v0.663h-2.035L138.622,136.75L138.622,136.75z"/>
			<path fill="#444444" d="M147.2,133.529c0,1.027-0.26,1.836-0.78,2.426c-0.52,0.588-1.243,0.883-2.168,0.883
				c-0.946,0-1.676-0.289-2.191-0.868c-0.514-0.578-0.771-1.396-0.771-2.45c0-1.045,0.258-1.856,0.773-2.432
				c0.516-0.576,1.248-0.863,2.197-0.863c0.923,0,1.644,0.293,2.162,0.879S147.2,132.498,147.2,133.529z M142.081,133.529
				c0,0.869,0.185,1.529,0.556,1.979c0.37,0.449,0.909,0.675,1.615,0.675c0.712,0,1.25-0.225,1.613-0.673
				c0.363-0.448,0.545-1.108,0.545-1.981c0-0.864-0.181-1.521-0.543-1.967c-0.362-0.447-0.897-0.67-1.606-0.67
				c-0.712,0-1.253,0.225-1.624,0.674C142.266,132.017,142.081,132.671,142.081,133.529z"/>
			<path fill="#444444" d="M152.707,132.197c0,0.65-0.222,1.15-0.666,1.501c-0.443,0.35-1.079,0.524-1.905,0.524h-0.756v2.527
				h-0.747v-6.425h1.666C151.904,130.325,152.707,130.949,152.707,132.197z M149.38,133.582h0.672c0.662,0,1.141-0.107,1.437-0.321
				c0.296-0.214,0.444-0.557,0.444-1.028c0-0.425-0.139-0.741-0.417-0.949c-0.278-0.208-0.712-0.312-1.301-0.312h-0.835V133.582
				L149.38,133.582z"/>
		</g>
		<g>
			<path fill="#444444" d="M107.791,282.575h1.815c0.853,0,1.469,0.128,1.85,0.382c0.381,0.256,0.571,0.658,0.571,1.209
				c0,0.381-0.106,0.695-0.319,0.941c-0.212,0.248-0.522,0.408-0.929,0.479v0.044c0.976,0.167,1.463,0.683,1.463,1.538
				c0,0.574-0.194,1.021-0.582,1.348c-0.389,0.319-0.931,0.48-1.628,0.48h-2.241V282.575z M108.538,285.326h1.23
				c0.527,0,0.907-0.082,1.138-0.248c0.231-0.166,0.347-0.445,0.347-0.838c0-0.359-0.129-0.619-0.387-0.779
				c-0.258-0.16-0.668-0.24-1.23-0.24h-1.099L108.538,285.326L108.538,285.326z M108.538,285.959v2.404h1.34
				c0.519,0,0.909-0.103,1.171-0.303c0.262-0.199,0.394-0.519,0.394-0.941c0-0.398-0.134-0.691-0.402-0.879
				c-0.268-0.188-0.676-0.281-1.224-0.281H108.538L108.538,285.959z"/>
			<path fill="#444444" d="M119.199,285.779c0,1.027-0.26,1.836-0.78,2.426c-0.52,0.588-1.243,0.883-2.168,0.883
				c-0.946,0-1.676-0.289-2.191-0.868c-0.514-0.577-0.771-1.396-0.771-2.45c0-1.045,0.258-1.854,0.773-2.432
				c0.516-0.576,1.248-0.863,2.197-0.863c0.923,0,1.644,0.293,2.162,0.879S119.199,284.748,119.199,285.779z M114.079,285.779
				c0,0.869,0.185,1.529,0.556,1.979c0.37,0.45,0.909,0.676,1.615,0.676c0.712,0,1.25-0.226,1.613-0.674
				c0.363-0.447,0.545-1.107,0.545-1.98c0-0.861-0.181-1.521-0.543-1.967c-0.362-0.443-0.897-0.67-1.606-0.67
				c-0.712,0-1.253,0.229-1.624,0.674C114.264,284.268,114.079,284.92,114.079,285.779z"/>
			<path fill="#444444" d="M122.609,289h-0.747v-5.762h-2.035v-0.663h4.816v0.663h-2.035L122.609,289L122.609,289z"/>
			<path fill="#444444" d="M127.588,289h-0.747v-5.762h-2.035v-0.663h4.816v0.663h-2.035L127.588,289L127.588,289z"/>
			<path fill="#444444" d="M136.166,285.779c0,1.027-0.26,1.836-0.78,2.426c-0.52,0.588-1.243,0.883-2.168,0.883
				c-0.946,0-1.676-0.289-2.191-0.868c-0.514-0.577-0.771-1.396-0.771-2.45c0-1.045,0.258-1.854,0.773-2.432
				c0.516-0.576,1.248-0.863,2.197-0.863c0.923,0,1.644,0.293,2.162,0.879S136.166,284.748,136.166,285.779z M131.046,285.779
				c0,0.869,0.185,1.529,0.556,1.979c0.37,0.45,0.909,0.676,1.615,0.676c0.712,0,1.25-0.226,1.613-0.674
				c0.363-0.447,0.545-1.107,0.545-1.98c0-0.861-0.181-1.521-0.543-1.967c-0.362-0.443-0.897-0.67-1.606-0.67
				c-0.712,0-1.253,0.229-1.624,0.674C131.231,284.268,131.046,284.92,131.046,285.779z"/>
			<path fill="#444444" d="M140.442,289l-2.18-5.695h-0.035c0.041,0.451,0.062,0.987,0.062,1.608V289h-0.69v-6.425h1.125l2.035,5.3
				h0.035l2.052-5.3h1.116V289h-0.747v-4.141c0-0.479,0.021-0.989,0.062-1.547h-0.035L141.044,289H140.442z"/>
			<path fill="#444444" d="M145.21,286.922v-0.668h2.158v0.668H145.21z"/>
			<path fill="#444444" d="M151.49,283.143c-0.706,0-1.263,0.231-1.672,0.707c-0.408,0.469-0.613,1.109-0.613,1.931
				c0,0.841,0.197,1.491,0.591,1.948c0.394,0.459,0.956,0.688,1.685,0.688c0.448,0,0.959-0.081,1.534-0.24v0.653
				c-0.445,0.167-0.995,0.25-1.648,0.25c-0.946,0-1.676-0.287-2.191-0.86c-0.514-0.574-0.771-1.391-0.771-2.447
				c0-0.662,0.124-1.239,0.372-1.737c0.247-0.498,0.604-0.886,1.072-1.15c0.467-0.271,1.017-0.401,1.65-0.401
				c0.674,0,1.263,0.123,1.767,0.369l-0.316,0.643C152.463,283.258,151.976,283.143,151.49,283.143z"/>
		</g>
		<g>
			<path fill="#444444" d="M24.869,37h-0.746v-3.023h-3.378V37H20v-6.425h0.746v2.733h3.378v-2.733h0.746V37z"/>
			<path fill="#444444" d="M30.204,37h-3.576v-6.425h3.576v0.664h-2.83v2.07h2.659v0.659h-2.659v2.364h2.83V37z"/>
			<path fill="#444444" d="M35.657,37l-0.799-2.043h-2.57L31.498,37h-0.755l2.536-6.451h0.627L36.429,37H35.657z M34.625,34.284
				l-0.746-1.991c-0.097-0.252-0.195-0.561-0.298-0.927c-0.064,0.281-0.157,0.59-0.276,0.927l-0.755,1.991H34.625z"/>
			<path fill="#444444" d="M42.429,33.726c0,1.061-0.287,1.872-0.861,2.432C40.993,36.72,40.167,37,39.087,37h-1.777v-6.425h1.966
				c0.997,0,1.771,0.277,2.325,0.831C42.154,31.96,42.429,32.733,42.429,33.726z M41.64,33.752c0-0.838-0.209-1.469-0.63-1.894
				c-0.42-0.425-1.043-0.637-1.871-0.637h-1.083v5.133h0.909c0.889,0,1.557-0.219,2.004-0.657
				C41.417,35.259,41.64,34.611,41.64,33.752z"/>
			<path fill="#444444" d="M47.435,37h-3.576v-6.425h3.576v0.664h-2.829v2.07h2.659v0.659h-2.659v2.364h2.829V37z"/>
			<path fill="#444444" d="M49.602,34.328V37h-0.746v-6.425h1.759c0.787,0,1.368,0.151,1.744,0.453
				c0.375,0.302,0.563,0.756,0.563,1.362c0,0.85-0.43,1.424-1.29,1.723L53.375,37h-0.882l-1.553-2.672H49.602z M49.602,33.687h1.022
				c0.526,0,0.912-0.104,1.158-0.314c0.246-0.209,0.369-0.523,0.369-0.942c0-0.425-0.125-0.731-0.375-0.918
				c-0.25-0.188-0.651-0.281-1.204-0.281h-0.97V33.687L49.602,33.687z"/>
			<path fill="#444444" d="M54.411,30.575h1.812c0.852,0,1.466,0.127,1.847,0.382s0.57,0.658,0.57,1.208
				c0,0.381-0.106,0.695-0.318,0.942c-0.212,0.248-0.521,0.408-0.928,0.481v0.044c0.975,0.167,1.46,0.68,1.46,1.538
				c0,0.574-0.193,1.022-0.581,1.345c-0.389,0.322-0.93,0.483-1.625,0.483h-2.237V30.575z M55.156,33.326h1.228
				c0.526,0,0.906-0.083,1.136-0.248s0.347-0.445,0.347-0.837c0-0.36-0.129-0.62-0.387-0.78s-0.667-0.24-1.228-0.24h-1.097
				L55.156,33.326L55.156,33.326z M55.156,33.959v2.404h1.338c0.518,0,0.907-0.1,1.168-0.301c0.261-0.2,0.394-0.515,0.394-0.942
				c0-0.398-0.134-0.691-0.401-0.879c-0.268-0.188-0.675-0.281-1.222-0.281L55.156,33.959L55.156,33.959z"/>
			<path fill="#444444" d="M64.263,37l-0.798-2.043h-2.57L60.104,37H59.35l2.536-6.451h0.627L65.035,37H64.263z M63.232,34.284
				l-0.746-1.991c-0.097-0.252-0.196-0.561-0.299-0.927c-0.064,0.281-0.156,0.59-0.276,0.927l-0.754,1.991H63.232z"/>
			<path fill="#444444" d="M66.663,34.328V37h-0.746v-6.425h1.758c0.787,0,1.368,0.151,1.744,0.453
				c0.375,0.302,0.563,0.756,0.563,1.362c0,0.85-0.43,1.424-1.29,1.723L70.435,37h-0.881L68,34.328H66.663z M66.663,33.687h1.022
				c0.526,0,0.913-0.104,1.158-0.314c0.246-0.209,0.369-0.523,0.369-0.942c0-0.425-0.125-0.731-0.375-0.918
				c-0.25-0.188-0.651-0.281-1.204-0.281h-0.969V33.687L66.663,33.687z"/>
			<path fill="#444444" d="M71.021,34.921v-0.668h2.154v0.668H71.021z"/>
			<path fill="#444444" d="M74.425,37v-6.425h0.746v5.748H78V37H74.425z"/>
		</g>
		<g>
			<path fill="#444444" d="M185.616,37h-0.747v-3.023h-3.384V37h-0.747v-6.425h0.747v2.733h3.384v-2.733h0.747V37z"/>
			<path fill="#444444" d="M190.96,37h-3.582v-6.425h3.582v0.664h-2.834v2.07h2.663v0.659h-2.663v2.364h2.834V37z"/>
			<path fill="#444444" d="M196.422,37l-0.8-2.043h-2.575L192.256,37H191.5l2.54-6.451h0.628L197.196,37H196.422z M195.389,34.284
				l-0.747-1.991c-0.097-0.252-0.196-0.561-0.299-0.927c-0.064,0.281-0.157,0.59-0.277,0.927l-0.756,1.991H195.389z"/>
			<path fill="#444444" d="M203.207,33.726c0,1.061-0.288,1.872-0.863,2.432C201.768,36.72,200.94,37,199.859,37h-1.78v-6.425h1.969
				c0.999,0,1.775,0.277,2.329,0.831C202.931,31.96,203.207,32.733,203.207,33.726z M202.416,33.752c0-0.838-0.21-1.469-0.631-1.894
				c-0.421-0.425-1.045-0.637-1.874-0.637h-1.085v5.133h0.91c0.891,0,1.56-0.219,2.008-0.657
				C202.192,35.259,202.416,34.611,202.416,33.752z"/>
			<path fill="#444444" d="M208.221,37h-3.582v-6.425h3.582v0.664h-2.834v2.07h2.663v0.659h-2.663v2.364h2.834V37z"/>
			<path fill="#444444" d="M210.392,34.328V37h-0.747v-6.425h1.762c0.788,0,1.37,0.151,1.747,0.453
				c0.376,0.302,0.564,0.756,0.564,1.362c0,0.85-0.431,1.424-1.292,1.723L214.172,37h-0.883l-1.556-2.672H210.392z M210.392,33.687
				h1.024c0.527,0,0.914-0.104,1.16-0.314c0.246-0.209,0.369-0.523,0.369-0.942c0-0.425-0.125-0.731-0.376-0.918
				c-0.25-0.188-0.652-0.281-1.206-0.281h-0.971V33.687L210.392,33.687z"/>
			<path fill="#444444" d="M215.209,30.575h1.815c0.853,0,1.469,0.127,1.85,0.382c0.381,0.255,0.571,0.658,0.571,1.208
				c0,0.381-0.106,0.695-0.319,0.942c-0.212,0.248-0.522,0.408-0.929,0.481v0.044c0.976,0.167,1.463,0.68,1.463,1.538
				c0,0.574-0.194,1.022-0.582,1.345c-0.389,0.322-0.931,0.483-1.628,0.483h-2.241V30.575z M215.956,33.326h1.23
				c0.527,0,0.907-0.083,1.138-0.248s0.347-0.445,0.347-0.837c0-0.36-0.129-0.62-0.387-0.78s-0.668-0.24-1.23-0.24h-1.099
				L215.956,33.326L215.956,33.326z M215.956,33.959v2.404h1.34c0.519,0,0.909-0.1,1.171-0.301c0.262-0.2,0.394-0.515,0.394-0.942
				c0-0.398-0.134-0.691-0.402-0.879c-0.268-0.188-0.676-0.281-1.224-0.281L215.956,33.959L215.956,33.959z"/>
			<path fill="#444444" d="M225.079,37l-0.8-2.043h-2.575L220.913,37h-0.756l2.54-6.451h0.628L225.852,37H225.079z M224.046,34.284
				l-0.747-1.991c-0.097-0.252-0.196-0.561-0.299-0.927c-0.064,0.281-0.157,0.59-0.277,0.927l-0.756,1.991H224.046z"/>
			<path fill="#444444" d="M227.483,34.328V37h-0.747v-6.425h1.762c0.788,0,1.37,0.151,1.747,0.453
				c0.376,0.302,0.564,0.756,0.564,1.362c0,0.85-0.431,1.424-1.292,1.723L231.262,37h-0.883l-1.556-2.672H227.483z M227.483,33.687
				h1.024c0.527,0,0.914-0.104,1.16-0.314c0.246-0.209,0.369-0.523,0.369-0.942c0-0.425-0.125-0.731-0.376-0.918
				c-0.25-0.188-0.652-0.281-1.206-0.281h-0.971V33.687L227.483,33.687z"/>
			<path fill="#444444" d="M232.141,34.922v-0.668h2.158v0.668H232.141z"/>
			<path fill="#444444" d="M236.3,34.328V37h-0.748v-6.425h1.763c0.788,0,1.37,0.151,1.747,0.452
				c0.376,0.303,0.564,0.756,0.564,1.363c0,0.85-0.431,1.424-1.292,1.723L240.079,37h-0.884l-1.556-2.672H236.3z M236.3,33.687
				h1.023c0.527,0,0.914-0.104,1.16-0.314c0.246-0.209,0.369-0.523,0.369-0.942c0-0.425-0.125-0.73-0.376-0.918
				c-0.25-0.188-0.652-0.281-1.206-0.281h-0.971L236.3,33.687L236.3,33.687z"/>
		</g>
	</g>
</g>
</svg>
