<?xml version="1.0" encoding="utf-8"?>
<!DOCTYPE svg PUBLIC "-//W3C//DTD SVG 1.1//EN" "http://www.w3.org/Graphics/SVG/1.1/DTD/svg11.dtd">
<svg version="1.1" xmlns="http://www.w3.org/2000/svg" xmlns:xlink="http://www.w3.org/1999/xlink" x="0px" y="0px" width="190px"
	 height="140px" viewBox="0 0 190 140" enable-background="new 0 0 190 140" xml:space="preserve">
<g id="Ebene_1">
</g>
<g id="Layer_2">
	<g>
		<path fill="#FFFFFF" d="M113.18,58.719c-2.31,0.059-4.573,4.852-5.203,8.924C112.94,67.271,116.019,58.643,113.18,58.719z"/>
		<path fill="#FFFFFF" d="M48.704,53.141c1.303-3.95-1-5.05-2.999-1.009c-0.937,1.894-4.166,8.077-5.166,15.146
			C44.537,64.248,47.704,56.171,48.704,53.141z"/>
		<path fill="#FFFFFF" d="M80.687,62.23c-1.887,2.919-3.437,8.96-1.999,11.11c0.783,1.172,2.425-0.347,2.999-1.01
			c1.09-4.76,2.437-9.373,2.998-11.109C84.275,59.257,82.583,59.295,80.687,62.23z"/>
		<path fill="#FFFFFF" d="M71.513,58.719c-2.312,0.059-4.571,4.853-5.204,8.924C71.272,67.272,74.35,58.643,71.513,58.719z"/>
		<path fill="#FFFFFF" d="M38.934,89.472c1.773,0.029,0.308-10.425-0.225-15.121C37.041,82.315,36.787,89.436,38.934,89.472z"/>
		<path fill="#FFFFFF" d="M189.333,68.81L96.615,0.491c-0.889-0.654-2.342-0.654-3.23,0L0.667,68.81
			c-0.889,0.654-0.889,1.726,0,2.38l92.718,68.319c0.889,0.654,2.342,0.654,3.23,0l92.719-68.319
			C190.222,70.536,190.222,69.464,189.333,68.81z M154.647,75.36c-0.995,3.51-2.685,8.167-4.268,11.088
			c-5.083,9.385-14.292,0.895-3.729-7.048c1.274-0.957,2.886-2.276,3.998-3.03c0.443-1.4,0.483-1.259,0.784-2.307
			c-1.439,2.022-3.968,2.042-5.016,1.392c-1.093-0.679-1.881-2.316-1.765-4.135c-3.7,4.372-6.669,5.606-9.356,4.27
			c-0.785-0.392-2.242-1.566-2.638-4.271c-1.536,3.608-4.036,4.647-5.997,4.041c-3.521-1.09-1.271-7.845,0-11.109
			c1.112-2.853,1.267-5.057-0.423-4.35c-2.329,0.975-4.264,5.053-5.246,7.505c-0.951,4.287-1.327,7.954-1.327,7.954l-3.445,0.089
			c0,0,0.331-2.313,0.875-5.27c-3.179,5.015-7.877,6.26-10.348,4.887c-1.072-0.596-1.68-1.168-2.074-2.737
			c-1.552,4.024-4.98,3.851-5.997,3.03c-1.07-0.866-0.962-1.661-1-3.03c-1.659,4.367-5.035,3.949-5.997,3.03
			c-0.926-0.885-1.554-1.859-1.665-3.004c-0.752,1.701-1.798,3.558-4.332,3.004c0.977,0.815,2.604,2.889,2.999,6.06
			c0.751,6.042-5.368,9.294-7.996,6.06c-1.794-2.209-0.651-6.369,0.554-12.531c0.032-0.17,0.072-0.346,0.107-0.519
			c-0.87,0.902-2.105,1.647-3.485,1.16c-0.93-0.331-2.61-1.123-2.7-5.014c-3.171,4.679-8.065,6.121-10.468,4.784
			c-1.854-1.031-2.647-3.698-1.921-7.861c-1.253,1.319-3.419,2.668-5.075,1.801c-2.828-1.481,2.999-9.09,0-9.09
			c-1.356,0-2.759,2.71-3.998,6.059c-1.113,4.782-1.999,9.09-1.999,9.09h-2.998c0,0,0.422-1.949,1-5.049
			c-1.037,1.567-5.095,5.871-9.948,3.555c5.95,13.615,0.9,16.321-0.046,16.645c-2.957,1.01-4.998-2.104-4.998-7.069
			c0-8.081,2-16.16,4.998-26.261c2.998-10.1,8.261-9.115,8.261-9.115c1.734,0.025,4.549,2.997,2.733,9.115
			c-2.998,10.1-10.222,11.033-10.222,11.033c-0.259,1.046-0.529,2.058-0.771,3.106c0.999,0,6.247,3.03,10.244-3.03
			c0.999-4.04,1.749-8.08,2.748-10.1c0,0,1.083-0.654,2.999-1.01c-0.532,1.307-0.711,3.145-1.161,4.698
			c0.984-1.863,3.076-5.224,5.159-4.698c3.998,1.011-0.549,8.93,0,10.101c0.395,0.84,1.463,1.186,3.352-1.149
			c0.165-0.651,0.378-1.326,0.616-2.062c1.68-5.197,5.828-7.966,9.025-6.89c2.999,1.01,2.753,8.709-1.999,11.11
			c-1.999,1.01-3.694,0.608-4.503,0.274c-0.228,2.062-0.173,3.65,0.505,4.776c1.578,2.62,6.249-1.436,8.498-4.075
			c0.019-0.717,0.06-0.974,0.187-1.886c0.935-6.701,4.435-10.41,7.308-10.2c1.837,0.133,2.808,2.216,2.999,3.03
			c1.088-0.312,3.036-0.421,3.036-0.421c-1.004,1.946-3.428,11.039-4.036,13.551c1.244,0.715,3.323,1.223,4.998-3.03
			c0.122-1.221,0.606-3.035,1-5.05c1.071-5.481,1.999-7.07,1.999-7.07l3.998-1.01c0,0-1.974,5.614-2.999,10.1
			c-1.049,4.604-0.859,7.07,1,7.07c1.137,0,2.374-2.425,2.803-4.161c0.156-1.154,0.423-2.524,0.764-4.269
			c1.071-5.481,2.43-7.73,2.43-7.73l3.998-1.01c0,0-1.974,5.614-2.998,10.1c-1.051,4.604-1.451,7.07,0,7.07
			c1.043,0,2.146-1.744,2.659-2.917c-0.33-1.787-0.103-4.198,0.997-7.362c1.591-4.576,5.417-7.472,8.66-6.547
			c3.149,0.9,3.082,7.354-1.31,10.374c-2.149,1.476-4.015,1.002-4.825,0.668c-0.228,2.062-0.211,3.21,0.468,4.335
			c1.687,2.8,6.923-0.9,8.938-3.625c0.825-4.327,2.081-9.434,3.403-11.084c0,0,0.93-0.559,2.999-1.01
			c-0.709,1.737-1.441,3.959-1.999,6.06c0.993-1.937,3.05-5.098,4.997-6.06c2.604-1.286,4.41,1.684,4.141,4.345
			c-0.27,2.66-3.292,8.535-3.142,10.804c0.143,2.179,3.243,2.63,4.998-2.019c-0.033-0.795-0.003-1.942,0.151-2.93
			c1.044-6.685,4.973-10.411,7.844-10.201c2.295,0.167,2.508,3.5,2.508,3.5l-0.509,1.55c-0.187-2.654-1.874-3.287-3.998,0
			c-1.885,2.919-3.787,8.249-1.929,11.048c1.4,2.107,7.181,0.104,8.629-5.608l0.296-1.4c1.068-5.481,2.998-8.08,2.998-8.08
			l2.999-1.01c0,0-1.929,5.178-2.953,9.664c-1.052,4.603-0.905,7.506,0.954,7.506c1.375,0,2.479-1.852,2.999-5.05
			c1.127-5.28,2.999-11.11,2.999-11.11l2.998-1.01c0,0-1.526,7.251-2.573,11.73c-0.088,0.381-0.494,2.254-1.143,4.737
			c3.833-2.92,4.715-4.348,4.715-4.348c0.421-0.071,1,0,1,0C160.528,69.948,158.888,71.844,154.647,75.36z"/>
		<path fill="#FFFFFF" d="M143.653,88.49c1.646,1.026,4.252-4.051,5.997-9.09C144.9,83.288,141.982,87.449,143.653,88.49z"/>
		<path fill="#FFFFFF" d="M84.684,75.36c-0.964,4.375-1.798,8.847-1,10.1c1.32,2.068,4.008-0.801,3.875-4.477
			C87.426,77.306,84.684,75.36,84.684,75.36z"/>
	</g>
</g>
</svg>
