<?xml version="1.0" encoding="utf-8"?>
<!-- Generator: Adobe Illustrator 16.0.4, SVG Export Plug-In . SVG Version: 6.00 Build 0)  -->
<!DOCTYPE svg PUBLIC "-//W3C//DTD SVG 1.1//EN" "http://www.w3.org/Graphics/SVG/1.1/DTD/svg11.dtd">
<svg version="1.1" id="Ebene_1" xmlns="http://www.w3.org/2000/svg" xmlns:xlink="http://www.w3.org/1999/xlink" x="0px" y="0px"
	 width="100px" height="40px" viewBox="0 0 100 40" enable-background="new 0 0 100 40" xml:space="preserve">
<g id="Ebene_1_1_">
</g>
<g id="Layer_2">
	<path fill="#FFFFFF" d="M99.206,19.943c0,0-0.7,1.137-3.744,3.467c0.517-1.98,0.837-3.473,0.907-3.778
		c0.831-3.567,2.043-9.348,2.043-9.348l-2.383,0.805c0,0-1.484,4.646-2.381,8.854c-0.412,2.548-1.289,4.025-2.381,4.025
		c-1.476,0-1.594-2.314-0.758-5.98c0.813-3.577,2.344-7.705,2.344-7.705l-2.381,0.806c0,0-1.531,2.072-2.381,6.439l-0.234,1.115
		c-1.15,4.552-5.74,6.148-6.854,4.468c-1.475-2.23,0.036-6.479,1.531-8.804c1.688-2.621,3.027-2.116,3.177,0l0.404-1.236
		c0,0-0.171-2.657-1.992-2.79c-2.278-0.167-5.399,2.803-6.229,8.13c-0.123,0.788-0.146,1.7-0.121,2.336
		c-1.394,3.705-3.854,3.348-3.969,1.607c-0.117-1.807,2.281-6.49,2.495-8.61c0.214-2.121-1.22-4.488-3.288-3.463
		c-1.547,0.767-3.18,3.287-3.97,4.831c0.442-1.675,1.026-3.445,1.589-4.831c-1.643,0.36-2.382,0.806-2.382,0.806
		c-1.05,1.314-2.047,5.385-2.703,8.835c-1.599,2.172-5.757,5.122-7.096,2.889c-0.54-0.898-0.554-1.811-0.371-3.456
		c0.642,0.266,2.124,0.643,3.831-0.531c3.486-2.406,3.54-7.551,1.041-8.27c-2.576-0.737-5.613,1.572-6.877,5.22
		c-0.873,2.522-1.055,4.442-0.792,5.867c-0.406,0.936-1.282,2.324-2.111,2.324c-1.151,0-0.834-1.965,0-5.633
		c0.813-3.576,2.381-8.051,2.381-8.051l-3.171,0.806c0,0-1.08,1.792-1.929,6.163c-0.271,1.391-0.481,2.479-0.608,3.399
		c-0.34,1.383-1.322,3.316-2.226,3.316c-1.476,0-1.626-1.965-0.794-5.633c0.812-3.574,2.381-8.05,2.381-8.05l-3.174,0.805
		c0,0-0.736,1.266-1.588,5.636c-0.312,1.607-0.696,3.052-0.793,4.024c-1.33,3.389-2.98,2.984-3.968,2.414
		c0.483-2,2.408-9.249,3.205-10.8c0,0-1.546,0.087-2.41,0.336c-0.152-0.649-0.922-2.309-2.381-2.415
		c-2.28-0.167-5.061,2.789-5.803,8.13c-0.101,0.728-0.134,0.933-0.148,1.502c-1.786,2.104-5.496,5.336-6.748,3.247
		c-0.539-0.896-0.583-2.16-0.401-3.805c0.642,0.266,1.989,0.586,3.576-0.219c3.774-1.912,3.968-8.051,1.587-8.855
		c-2.539-0.859-5.833,1.349-7.167,5.492c-0.189,0.585-0.358,1.123-0.489,1.643c-1.5,1.861-2.349,1.586-2.662,0.918
		c-0.437-0.934,3.175-7.246,0-8.052c-1.654-0.42-3.315,2.26-4.097,3.745c0.357-1.238,0.499-2.704,0.921-3.745
		c-1.52,0.284-2.381,0.805-2.381,0.805c-0.793,1.61-1.389,4.831-2.182,8.051c-3.175,4.828-7.342,2.414-8.135,2.414
		c0.193-0.836,0.407-1.643,0.613-2.475c0,0,5.736-0.744,8.117-8.794c1.443-4.877-0.793-7.245-2.17-7.265
		c0,0-4.178-0.785-6.559,7.265C1.588,18.335,0,24.773,0,31.213c0,3.96,1.621,6.44,3.969,5.636c0.751-0.256,4.762-2.414,0.037-13.267
		c3.854,1.848,7.077-1.584,7.899-2.834c-0.458,2.471-0.794,4.023-0.794,4.023h2.381c0,0,0.704-3.432,1.587-7.244
		c0.983-2.669,2.098-4.83,3.175-4.83c2.381,0-2.246,6.063,0,7.244c1.314,0.691,3.035-0.385,4.03-1.435
		c-0.576,3.317,0.053,5.442,1.525,6.264c1.909,1.066,5.794-0.082,8.312-3.811c0.071,3.102,1.405,3.73,2.145,3.996
		c1.095,0.389,2.076-0.205,2.767-0.926c-0.028,0.139-0.06,0.277-0.086,0.414c-0.956,4.91-1.864,8.229-0.44,9.987
		c2.086,2.578,6.946-0.016,6.349-4.831c-0.313-2.527-1.605-4.182-2.38-4.83c2.011,0.441,2.843-1.039,3.44-2.395
		c0.088,0.914,0.587,1.689,1.321,2.395c0.764,0.732,3.445,1.064,4.763-2.416c0.03,1.092-0.056,1.729,0.794,2.416
		c0.809,0.654,3.527,0.791,4.762-2.416c0.312,1.25,0.797,1.707,1.647,2.18c1.961,1.098,5.69,0.104,8.216-3.895
		c-0.43,2.357-0.693,4.201-0.693,4.201l2.736-0.072c0,0,0.299-2.922,1.053-6.337c0.779-1.956,2.316-5.206,4.166-5.984
		c1.342-0.563,1.219,1.194,0.336,3.467c-1.011,2.604-2.795,7.985,0,8.854c1.558,0.482,3.541-0.344,4.762-3.221
		c0.313,2.156,1.471,3.092,2.096,3.404c2.135,1.064,4.49,0.082,7.43-3.402c-0.091,1.447,0.533,2.754,1.401,3.295
		c0.831,0.52,2.839,0.504,3.981-1.109c-0.237,0.834-0.271,0.725-0.623,1.838c-0.883,0.602-2.162,1.652-3.174,2.416
		c-8.389,6.331-1.076,13.101,2.961,5.615c1.258-2.326,2.6-6.039,3.389-8.836c3.367-2.803,4.67-4.313,4.763-4.83
		C100,19.943,99.541,19.886,99.206,19.943z M62.311,11.508c2.254-0.061-0.191,6.818-4.134,7.114
		C58.68,15.376,60.477,11.556,62.311,11.508z M29.223,11.508c2.253-0.061-0.191,6.821-4.132,7.114
		C25.593,15.378,27.388,11.556,29.223,11.508z M8.73,6.259c1.587-3.221,3.416-2.345,2.381,0.804
		c-0.794,2.415-3.309,8.854-6.483,11.268C5.421,12.697,7.985,7.768,8.73,6.259z M3.353,36.021
		c-1.705-0.025-1.503-5.704-0.179-12.052C3.598,27.711,4.762,36.046,3.353,36.021z M37.302,22.357
		c-0.456,0.529-1.759,1.74-2.381,0.807c-1.143-1.713,0.088-6.528,1.587-8.855c1.507-2.341,2.849-2.371,3.175-0.806
		C39.237,14.888,38.167,18.564,37.302,22.357z M41.966,29.254c0.106,2.932-2.029,5.22-3.077,3.57
		c-0.634-0.998,0.028-4.562,0.794-8.051C39.682,24.773,41.859,26.322,41.966,29.254z M86.508,35.241
		c-1.326-0.832,0.991-4.149,4.762-7.247C89.887,32.01,87.814,36.058,86.508,35.241z"/>
</g>
</svg>
